<svg id="Layer_1" data-name="Layer 1" xmlns="http://www.w3.org/2000/svg" viewBox="0 0 300 100"><defs><style>.cls-1{font-size:23.99px;}.cls-1,.cls-10,.cls-11,.cls-12,.cls-13,.cls-14,.cls-15,.cls-2,.cls-3,.cls-4,.cls-5,.cls-6,.cls-7,.cls-8,.cls-9{font-family:Elder-Futhark-Regular, Elder Futhark;}.cls-2{font-size:23.64px;}.cls-3{font-size:14.12px;}.cls-4{font-size:13.28px;}.cls-5{font-size:11.96px;}.cls-6{font-size:14.03px;}.cls-7{font-size:14.51px;}.cls-8{font-size:22.04px;}.cls-9{font-size:16.54px;}.cls-10{font-size:6.99px;}.cls-10,.cls-11,.cls-12,.cls-13,.cls-14,.cls-15{stroke:#000;stroke-miterlimit:10;stroke-width:0.5px;}.cls-11{font-size:10.96px;}.cls-12{font-size:14.27px;}.cls-13{font-size:20.9px;}.cls-14{font-size:25.54px;}.cls-15{font-size:5.65px;}</style></defs><title>backCdS</title><text class="cls-1" transform="translate(163.75 80.06) scale(1.63 1)">S</text><text class="cls-2" transform="matrix(1.62, -0.02, 0.02, 1, 198.18, 50.16)">x</text><text class="cls-3" transform="matrix(1.67, 0, 0, 1, 59.4, 66.73)">u</text><text class="cls-4" transform="matrix(1.35, 0, 0, 1, 275.74, 18.77)">d</text><text class="cls-5" transform="matrix(1.45, 0.02, -0.02, 1, 241.52, 73.02)">L</text><text class="cls-6" transform="matrix(1.37, 0, 0, 1, 106.25, 20.99)">j</text><text class="cls-7" transform="matrix(1.16, 0.02, -0.03, 1, 225.99, 61.52)">f</text><text class="cls-8" transform="matrix(1.25, 0.02, -0.03, 1, -1.98, 45.4)">z</text><text class="cls-9" transform="matrix(1.69, 0.02, -0.01, 1, 35.15, 57.3)">r</text><text class="cls-10" transform="translate(30.74 22.4) scale(1.25 1)">q</text><text class="cls-11" transform="translate(25.48 35.48) scale(1.25 1)">q</text><text class="cls-12" transform="translate(44.78 38.79) scale(1.25 1)">q</text><text class="cls-11" transform="translate(61.44 22.16) scale(1.25 1)">q</text><text class="cls-10" transform="translate(75.47 28.01) scale(1.25 1)">q</text><text class="cls-13" transform="translate(88.88 43.3) scale(1.25 1)">q</text><text class="cls-13" transform="translate(122.21 39.09) scale(1.25 1)">q</text><text class="cls-10" transform="translate(33.37 73.61) scale(1.25 1)">q</text><text class="cls-11" transform="translate(11.45 67.06) scale(1.25 1)">q</text><text class="cls-13" transform="translate(41.27 88.2) scale(1.25 1)">q</text><text class="cls-13" transform="translate(79.86 77.68) scale(1.25 1)">q</text><text class="cls-11" transform="translate(95.77 86) scale(1.25 1)">q</text><text class="cls-11" transform="translate(103.66 95.12) scale(1.25 1)">q</text><text class="cls-14" transform="translate(135.27 87.92) scale(1.25 1)">q</text><text class="cls-14" transform="translate(163.46 52.54) scale(1.25 1)">q</text><text class="cls-10" transform="translate(131.34 67.3) scale(1.25 1)">q</text><text class="cls-15" transform="translate(142.03 61.07) scale(1.25 1)">q</text><text class="cls-10" transform="translate(156.15 52.57) scale(1.25 1)">q</text><text class="cls-10" transform="translate(139.24 50.46) scale(1.25 1)">q</text><text class="cls-15" transform="translate(151.05 37.21) scale(1.25 1)">q</text><text class="cls-11" transform="translate(164.92 23.56) scale(1.25 1)">q</text><text class="cls-15" transform="translate(195 13.06) scale(1.25 1)">q</text><text class="cls-11" transform="translate(206.11 10.93) scale(1.25 1)">q</text><text class="cls-15" transform="translate(219.43 36.51) scale(1.25 1)">q</text><text class="cls-15" transform="translate(236.2 35.6) scale(1.25 1)">q</text><text class="cls-10" transform="translate(246.19 45.44) scale(1.25 1)">q</text><text class="cls-11" transform="translate(262.09 34.78) scale(1.25 1)">q</text><text class="cls-11" transform="translate(265.75 73.78) scale(1.25 1)">q</text><text class="cls-15" transform="translate(181 83.52) scale(1.25 1)">q</text><text class="cls-10" transform="translate(196.99 75.72) scale(1.25 1)">q</text><text class="cls-15" transform="translate(191.01 91.24) scale(1.25 1)">q</text><text class="cls-13" transform="translate(208.64 89.72) scale(1.25 1)">q</text><text class="cls-13" transform="translate(248.09 94.51) scale(1.25 1)">q</text><text class="cls-10" transform="translate(278.75 98.17) scale(1.25 1)">q</text><text class="cls-15" transform="translate(289.56 94.74) scale(1.25 1)">q</text></svg>