<svg id="Layer_1" data-name="Layer 1" xmlns="http://www.w3.org/2000/svg" viewBox="0 0 300 150"><defs><style>.cls-1{font-size:34.19px;}.cls-1,.cls-10,.cls-11,.cls-12,.cls-13,.cls-14,.cls-15,.cls-2,.cls-3,.cls-4,.cls-5,.cls-6,.cls-7,.cls-8,.cls-9{font-family:Elder-Futhark-Regular, Elder Futhark;}.cls-2{font-size:33.69px;}.cls-3{font-size:20.12px;}.cls-4{font-size:18.93px;}.cls-5{font-size:17.05px;}.cls-6{font-size:19.99px;}.cls-7{font-size:20.67px;}.cls-8{font-size:31.41px;}.cls-9{font-size:23.58px;}.cls-10{font-size:9.97px;}.cls-10,.cls-11,.cls-12,.cls-13,.cls-14,.cls-15{stroke:#000;stroke-miterlimit:10;stroke-width:0.5px;}.cls-11{font-size:15.62px;}.cls-12{font-size:20.34px;}.cls-13{font-size:29.79px;}.cls-14{font-size:36.4px;}.cls-15{font-size:8.06px;}</style></defs><title>backCdS</title><text class="cls-1" transform="translate(174 117.11) scale(1.31 1)">S</text><text class="cls-2" transform="matrix(1.3, -0.02, 0.02, 1, 205.28, 75.93)">x</text><text class="cls-3" transform="matrix(1.33, 0, 0, 1, 62.98, 98.11)">u</text><text class="cls-4" transform="translate(268.58 29.76) rotate(-0.21) scale(1.08 1)">d</text><text class="cls-5" transform="matrix(1.16, 0.02, -0.02, 1, 246.7, 102.81)">L</text><text class="cls-6" transform="translate(114.14 32.91) rotate(-0.05) scale(1.1 1)">j</text><text class="cls-7" transform="translate(229.01 86.41) rotate(1.39) scale(0.93 1)">f</text><text class="cls-8" transform="matrix(1, 0.02, -0.02, 1, -6.97, 67.71)">z</text><text class="cls-9" transform="matrix(1.35, 0.02, -0.01, 1, 35.36, 84.68)">r</text><text class="cls-10" transform="translate(30.33 34.92)">q</text><text class="cls-11" transform="translate(24.33 53.58)">q</text><text class="cls-12" transform="translate(46.33 58.29)">q</text><text class="cls-11" transform="translate(65.33 34.58)">q</text><text class="cls-10" transform="translate(81.33 42.92)">q</text><text class="cls-13" transform="translate(94.34 64.71)">q</text><text class="cls-13" transform="translate(132.34 58.71)">q</text><text class="cls-10" transform="translate(33.33 107.92)">q</text><text class="cls-11" transform="translate(8.33 98.58)">q</text><text class="cls-13" transform="translate(42.34 128.71)">q</text><text class="cls-13" transform="translate(86.34 113.71)">q</text><text class="cls-11" transform="translate(103.33 125.58)">q</text><text class="cls-11" transform="translate(112.33 138.58)">q</text><text class="cls-14" transform="translate(139.25 128.31)">q</text><text class="cls-14" transform="translate(170.25 79.31)">q</text><text class="cls-10" transform="translate(139.33 98.92)">q</text><text class="cls-15" transform="translate(153.8 90.04)">q</text><text class="cls-10" transform="translate(165.33 77.92)">q</text><text class="cls-10" transform="translate(148.33 74.92)">q</text><text class="cls-15" transform="translate(161.8 56.04)">q</text><text class="cls-11" transform="translate(175.33 36.58)">q</text><text class="cls-15" transform="translate(194.8 23.04)">q</text><text class="cls-11" transform="translate(206.33 18.58)">q</text><text class="cls-15" transform="translate(223.8 55.04)">q</text><text class="cls-15" transform="translate(233.8 48.04)">q</text><text class="cls-10" transform="translate(246.33 64.92)">q</text><text class="cls-11" transform="translate(255.33 52.58)">q</text><text class="cls-11" transform="translate(274.33 109.58)">q</text><text class="cls-15" transform="translate(194.8 122.04)">q</text><text class="cls-10" transform="translate(207.33 110.92)">q</text><text class="cls-15" transform="translate(202.8 133.04)">q</text><text class="cls-13" transform="translate(218.34 143.71)">q</text><text class="cls-13" transform="translate(255.34 137.71)">q</text><text class="cls-10" transform="translate(274.33 142.92)">q</text><text class="cls-15" transform="translate(287.8 138.04)">q</text></svg>