<svg id="Layer_1" data-name="Layer 1" xmlns="http://www.w3.org/2000/svg" viewBox="0 0 300 100"><defs><style>.cls-1{fill:none;stroke:#000;stroke-miterlimit:10;}</style></defs><title>backCdS</title><path d="M160.63,64.57l12.58-7.7,2.79-.73-1.18,1.71-11,6.72,11.44,7L162.68,79.3l-2.79.73,1.18-1.71,11-6.74Z"/><path d="M194.31,48.46q0-1-.08-3.87t-.12-6.2q-.07-3.3-.12-6.2t-.08-3.88l.88-1.72,1.33,1.69.1,4.78,8.67,5.18-8.46,5.39.1,4.8-1.26,1.71Zm7.6-10.19-5.66-3.38.14,6.9Z"/><path d="M55.53,52.66l9.4,5.71v7.39l-.66,1-.66-1V58.71L56.8,54.58V65.76l-.65,1-.66-1Z"/><path d="M235.33,67l-.63-.85,1.26.34,4.23,3,.19-9.51.5-.83.47.84-.22,11.11Z"/><path d="M102.15,12l6.11-4.47,1.4-.47-.55,1-5.47,4,5.47,4,.56,1-1.41-.47Zm13.55,4.11-6.13,4.47-1.4.47.56-1,5.47-4-5.47-4-.55-1,1.4.48Z"/><path d="M107.61,21.46l1-1.6,5.19-3.79-5.26-3.87-.89-1.53,2.1.73,6.4,4.67-6.47,4.7Zm1.31-1.22-.19.32.72-.24,5.82-4.24-5.81-4.24-.73-.25.19.33,5.71,4.16Zm1.3-2.88-2.11-.72L101.72,12l6.45-4.71,2-.69-1,1.6L104.05,12l5.26,3.86Zm-1.85-1.15.73.25-.2-.33L103.21,12l5.71-4.16.19-.33-.73.25L102.57,12Z"/><path d="M222,60.37q.07-2.16.1-3.18V55.83q0-.34,0-.21V55.1c0-.5,0-1.3.07-2.4s.08-2.65.15-4.64l.51-1,.46,1-.07,2.36,3.2-2.78,1.23-.47L227,48.36l-3.78,3.25-.07,2.17,7.2-6.07,1.23-.47-.54,1.2L223.19,55,223,60.39l-.52,1Z"/><path d="M26.77,18.92l3.08-2.46,3.08,2.46-3.08,2.47Zm.67,0,2.41,1.93,2.42-1.93L29.85,17Z"/><path d="M29.85,21.71l-3.48-2.79,3.48-2.78,3.49,2.78Zm-2-2.79,2,1.61,2-1.61-2-1.61Z"/><path d="M24.55,35.48l-4-3.23,3.25-2.66V25.26l.38-.75.38.75Zm-3-3.23L23.79,34V30.46Z"/><path d="M24.8,36l-4.66-3.75,3.4-2.78V25.15l.6-1.19.63,1.3Zm-3.87-3.76L24.3,35V25.32l-.13-.26-.13.26V29.7ZM24,34.57l-2.85-2.32L24,29.93Zm-2-2.32,1.56,1.27V31Z"/><path d="M40.86,36.79V23.55l5.27,4.35.58,1-1.17-.4-3.68-3.12v3L46.13,32l.58,1-1.17-.4-3.68-3.11v7.34l-.51,1Z"/><path d="M41.35,38.35l-.74-1.55V23l5.74,4.75.92,1.59-1.88-.66-3.27-2.77v2.32l4.23,3.58.92,1.59-1.88-.67L42.11,30v6.92Zm-.24-1.61.25.5.25-.5V28.91l4.06,3.43.49.17-.23-.39-4.32-3.64V24.85l4.06,3.44.49.17-.23-.4-4.83-4Z"/><path d="M60.3,15.94V12l.39-.79.39.79v4.54l2.37,1.89.42.78-1-.33-1.81-1.44v3.91l-.39.79-.39-.79V16.84l-2.37-1.89-.41-.78,1,.33Z"/><path d="M60.69,22.72,60,21.38V17l-2.34-1.89L57,13.73l1.65.58L60,15.42v-3.5l.62-1.23L61.34,12v4.42l2.34,1.9.71,1.33-1.65-.58L61.34,18v3.5Zm-.14-1.4.14.29.14-.29V17L63,18.69l.34.11-.09-.17L60.84,16.7V12.1l-.14-.29-.14.29v4.37l-2.18-1.74L58,14.6l.09.18,2.42,1.93Z"/><path d="M74.32,24.52l2.09,2.88.15.61-.59-.4-2-2.68-1.95,2.68-.59.4.14-.6,2.1-2.88-2.09-2.88L71.49,21l.59.4L74,24.11l2-2.68.59-.4-.14.61Z"/><polygon points="76.96 28.58 75.77 27.75 74.03 25.36 72.22 27.81 71.1 28.58 71.43 27.26 73.42 24.52 71.39 21.7 71.1 20.46 72.28 21.29 74.03 23.69 75.83 21.23 76.95 20.46 76.63 21.79 74.63 24.52 76.66 27.34 76.96 28.58"/><path d="M31.92,68.65l2.52-2v6.49l-.24.49-.25-.49V67.56l-2,1.65-2-1.65v5.57l-.24.49-.25-.49V66.64Z"/><polygon points="34.19 74.17 33.69 73.12 33.69 68.08 31.92 69.53 30.15 68.08 30.12 73.23 29.66 74.17 29.16 73.12 29.15 66.12 31.92 68.33 34.69 66.11 34.66 73.23 34.19 74.17"/><path d="M12.23,64.86,9.5,67.06V56.14l2.73,2.19,2.28-1.83.93-.37L15,57l-2.74,2.2-2-1.56V65.5L12.23,64,15,66.2l.47.86-.93-.37Z"/><path d="M9.25,67.58v-12l3,2.4,2.19-1.74L16,55.65l-.87,1.54-2.9,2.32-1.68-1.35V65l1.69-1.35,3,2.45.8,1.47L14.4,66.9l-2.12-1.7Zm5.39-1.12.25.1-.11-.2-2.55-2.09L10,66V57.1l2.18,1.75,2.55-2,.11-.2-.25.1-2.41,1.93-2.48-2v9.88l2.48-2Z"/><path d="M75.72,67.26,84,60.61l1.9-.7-.75,1.42-7.44,5.94,7.44,5.95.77,1.42L84,73.92Z"/><path d="M86.47,75.09l-2.6-1-8.55-6.86,8.62-6.89,2.52-.93-1.12,2.08-7.19,5.74,7.26,5.83ZM84.15,73.7l1.25.46-.4-.79-7.64-6.11L85,61.16l.42-.79-1.25.46-8,6.43Z"/><path d="M92.87,76.1l4.41,2.41.27.39h-.47l-4.41-2.41-.27-.39Z"/><polygon points="98.04 79.16 96.96 79.1 92.46 76.61 91.9 75.81 92.99 75.88 97.49 78.36 98.04 79.16"/><path d="M95.94,76.08l-3.38,8.71-.65.59-.08-.88,3.38-8.71.65-.6Z"/><path d="M91.71,85.9l-.14-1.43v-.05L95,75.61l1-.93.13,1.44v.05L92.74,85Zm.37-1.36v.32l.24-.22L95.69,76v-.32l-.24.22Z"/><path d="M101.72,95.12V84.21l4,3.16-2.8,2.3,2.8,2.3Zm3-7.75-2.19-1.81v3.61Zm0,4.59-2.19-1.81v3.62Z"/><path d="M101.47,95.63V83.7l4.66,3.67-2.81,2.3,2.81,2.3Zm.53-10.9v9.88L105.33,92l-2.8-2.29,2.8-2.29Zm.28,9.57V85l2.83,2.34-2.78,2.29,2.78,2.3Zm.5-3.62v2.55L104.29,92Zm0-4.59v2.55l1.54-1.27Z"/><path d="M183.38,28.92V50.71l-.94,1.83-.92-1.83V45.93L169.44,35.75v15l-.92,1.83-.92-1.83V28.93l.92-1.85.92,1.85v4.71l12.08,10.18V28.92l.92-1.83Z"/><path d="M168.52,53.1l-1.17-2.39V28.82l1.14-2.29,1.17,2.41v4.6l11.58,9.75V28.81l1.14-2.27,1.19,2.39v21.9l-1.16,2.27-1.17-2.39V46l-11.58-9.75V50.78Zm13.25-2.45.67,1.34.68-1.34V29l-.68-1.34L181.77,29V44.36l-12.58-10.6V29l-.67-1.34L167.85,29V50.65l.67,1.33.67-1.33V35.22l12.58,10.6Z"/><path d="M130.6,67.05l-3.39-2.71,2.63-2.11-2.27-1.85L127,59.33l1.3.46,2.3,1.84,2.4-1.88,1.22-.42-.62,1.13-2.21,1.77L134,64.34Zm-1.87-2.71,1.87,1.5,1.87-1.5-1.87-1.5Z"/><path d="M138.31,59.27l-.24-.38.51.14,1.77,1.45V55.85l.21-.41.2.41v4.62L142.53,59l.51-.14-.24.38L140.55,61Z"/><polygon points="140.56 61.39 138.1 59.4 137.52 58.48 138.74 58.83 140.1 59.94 140.13 55.73 140.56 54.88 141.01 55.85 141.01 59.94 142.47 58.78 143.59 58.48 142.97 59.47 140.56 61.39"/><path d="M155.57,53.49l-.51-1.06V48.71l-2.54-2.07-.62-1.16,1.3.53,1.87,1.49V46.35l.48-1,.5,1.06v1L157.92,46l1.23-.5-.69,1.23-2.39,2v3.84Zm0-1.12h0V46.53h0Z"/><path d="M136.52,51,136,50V43l3.23,2.55-2,1.61,2.15,1.75.74,1.12-1.43-.52L137,48.07v2Zm.49-6.17v1.25l.78-.63Z"/><polygon points="149.37 37.77 148.91 36.8 148.94 31.88 149.37 31.02 149.82 31.99 149.79 36.92 149.37 37.77"/><polygon points="219.65 36.66 216.34 33.97 216.36 30.78 216.78 29.95 217.23 30.89 217.23 33.6 218.77 34.85 218.79 30.78 219.21 29.95 219.66 30.89 219.65 36.66"/><path d="M245.2,46l-.5-1.06V38.87l.48-1,.5,1.07V45Zm0-1.12h0V39h0Z"/><path d="M270.46,23.37v10.9l-6.37-5-6.38,5.06V23.36l6.38,5.06Zm-6.94,5.45-5-4v8.09Zm1.13,0,5.06,4v-8Z"/><path d="M257.45,34.8v-12l6.63,5.26,6.63-5.24v12l-6.62-5.25Zm.5-10.92v9.88l6.13-4.86,6.13,4.85V23.89l-6.12,4.85Zm.27,9.51V24.25l5.7,4.57Zm.5-8.09v7l4.4-3.53ZM270,33.39l-5.71-4.57L270,24.26Zm-4.91-4.57,4.41,3.53v-7Z"/><path d="M273,65.35l.46.74-1-.26L269,63v9l-.39.79-.4-.79V63l-3.43,2.8-1,.27.47-.75,4.36-3.49Z"/><path d="M268.66,73.33,268,72V63.56l-3.12,2.51-1.61.43.86-1.35,4.52-3.61,4.57,3.68L274,66.5l-1.7-.47-3-2.47v8.55Zm-.15-1.4.15.29.15-.29V62.5l3.8,3.1.34.09-.11-.17-4.17-3.34-4.17,3.34-.11.17.33-.09,3.8-3.1Z"/><path d="M179.35,78.28q0,1.67,0,2.56t0,1.37v1.3l-2.08-1.72-.23-.4.46.16L179,82.79V81.61l-1.69-1.42-.23-.4.46.16L179,81.18v-2.9l.2-.4Z"/><polygon points="179.59 84.05 177.04 81.92 176.48 80.95 177.66 81.36 178.7 82.25 178.7 81.73 177.04 80.32 176.48 79.34 177.66 79.76 178.7 80.65 178.72 78.17 179.15 77.33 179.6 78.28 179.59 84.05"/><path d="M196.32,73.11l2.57,2.07.29.55-.59-.24-2.28-1.82h-.5l-2.19,1.82-.59.24.29-.55,2.49-2.07V69.25l.25-.5.25.5Z"/><path d="M199.74,76.21l-1.3-.54-2.21-1.76h-.33l-2.18,1.8-1.23.5.68-1.23,2.4-2V69.13l.48-.95.5,1.06V73l2.54,2.07Zm-3.9-2.8h.46l-.23-.18V69.31h0v3.91Z"/><path d="M189.32,88.42l1.7,2.33.11.49-.48-.33-1.58-2.17-1.57,2.17-.48.33.12-.49,1.69-2.33-1.7-2.33L187,85.6l.48.33,1.57,2.17,1.58-2.17.48-.33-.12.49Z"/><polygon points="186.63 91.81 186.94 90.61 188.53 88.42 186.79 86.03 187.22 85.74 187.6 85.64 189.07 87.67 190.55 85.64 191.01 85.78 191.35 86.04 189.63 88.42 191.26 90.69 191.52 91.81 190.45 91.06 189.07 89.17 187.64 91.12 186.63 91.81"/><path d="M245.76,86.16V93L245,94.5l-.75-1.5V73.83q1.81,1.5,3.74,2.93t3.8,2.92l7.37-5.86V93l-.75,1.5-.75-1.5V86l-5.87-4.7Zm0-1.7,4.95-4-4.95-4Zm7.09-4,4.8,3.84V76.65Z"/><path d="M258.4,95l-1-2.06V86.17l-5.62-4.5L246,86.28v6.79L245,95l-1-2V73.3l.41.34c1.2,1,2.46,2,3.73,2.93s2.46,1.86,3.65,2.8l7.62-6.06V93.12Zm-13.91-2.1.5,1,.51-1V86l6.27-5,6.12,4.9v7l.5,1,.5-1V74.3L251.78,80l-.16-.12c-1.24-1-2.51-2-3.8-2.92s-2.25-1.72-3.34-2.6v9.06Q244.49,88.14,244.49,92.9Zm1-7.92V76l5.6,4.49Zm.51-8v6.89l4.3-3.44Zm11.89,7.81-5.45-4.36,5.45-4.37Zm-4.65-4.36,4.15,3.32v-6.6Z"/><path d="M277.86,97.22l-3.48-2.79,3.48-2.79,3.49,2.79Zm-2-2.79,2,1.61,2-1.61-2-1.61Z"/><polygon points="288.22 95.07 287.76 94.1 287.76 93.38 286.34 94.55 285.22 95 285.84 93.88 287.76 92.28 287.79 89.17 288.22 88.32 288.67 89.28 288.67 92.28 290.72 93.95 291.29 95 290.11 94.51 288.67 93.37 288.64 94.21 288.22 95.07"/><path d="M148.13,89.65l-10.33-.13-3.57-16.24,5.86,2.07L137.76,66l1.93-.35L142.8,78.1l-6-2.1,2.61,11.86,8.92.11Z"/><path d="M137.76,66l.24-3,1.69,2.72Z"/><polygon points="147.68 90.57 145.85 89.94 151.19 79.06 148.02 79.53 147.68 77.89 154.38 76.89 147.68 90.57"/><path d="M147.67,90.57,145.43,93l.43-3Z"/><path d="M147.7,77.89l-3.29,1.34,3.64.32Z"/><path d="M60.54,65.85H59.33V62.4l-3.67-2,.59-1.1,4.33,2.31Z"/><path d="M59.33,65.64l.6.74.57-.75Z"/><rect x="264.77" y="72.05" width="7.71" height="1.23"/><path d="M264.77,73.28,263,72.66l1.77-.62Z"/><path d="M272.46,73.28l1.79-.62L272.48,72Z"/><rect x="209.13" y="70.54" width="1.32" height="16.92"/><path d="M209.17,70.54,209.8,68l.66,2.56Z"/><path d="M209.13,87.46,209.8,90l.67-2.63Z"/><path d="M215.51,89.89l-6.45-9.24,14.11-5.72Zm-4.31-8.57,4.14,5.94,4.92-9.61Z"/><polygon points="210.29 81.46 209.3 80.5 218.01 69.77 219 70.73 210.29 81.46"/><path d="M218,69.81l2.06-1.47L219,70.73Z"/><path d="M186.93,86.23l-.52-.7h5.29l-.51.74Z"/><path d="M198.06,74.44l-.94-.33,1.39-3.89.88-.65.35.19Z"/><path d="M195,74.07l-.9.43L192,70l.45-.19.9.67Z"/><polygon points="53.03 84.33 46.71 72.96 40.66 84.3 39.54 83.7 46.69 70.29 54.15 83.71 53.03 84.33"/><path d="M40.66,84.3,39,86l.5-2.3Z"/><path d="M53,84.33,54.69,86l-.54-2.29Z"/><rect x="46.06" y="71.63" width="1.28" height="12.11"/><path d="M47.34,83.74,46.7,86l-.64-2.26Z"/><polygon points="125.3 40.56 121.51 38.22 134.07 30.77 129.96 27.41 134.12 23.63 121.61 16.21 125 13.67 125.93 14.91 124.4 16.06 136.71 23.37 132.34 27.35 136.76 30.97 124.5 38.25 126.11 39.24 125.3 40.56"/><path d="M125,13.67l2.66-1-1.73,2.27Z"/><path d="M125.3,40.56l2.75.78-1.93-2.1Z"/><rect x="124.56" y="17.68" width="1.55" height="19"/><path d="M94.61,24.9V44.28L85.32,37l-.2-1.17,1.26.34,6.77,5.44V22.19l9.3,7.33.5,1.13-1.41-.24Z"/><path d="M94.86,44.8l-9.77-7.7-.29-1.65,1.73.48L92.9,41V21.58l9.78,7.75.69,1.55-2-.37-6.5-5.15Zm-9.31-8,8.81,7V24.38l7.26,5.75.89.15-.29-.65-8.85-7V42.06l-7.13-5.73-.83-.22Z"/><path d="M243.49,41.2l3.57,2.3.2.36h-.41l-3.57-2.3-.2-.36Z"/><path d="M247.48,44l-.69-.07-3.61-2.34-.31-.56.7.07,3.61,2.34Zm-.58-.29h.1l-.07-.13-3.51-2.26h-.15l.07.13Z"/><path d="M243.68,39.57l3.57,2.3.2.36H247l-3.57-2.3-.2-.36Z"/><path d="M247.66,42.37,247,42.3,243.36,40l-.31-.56.7.07,3.61,2.34Zm-.58-.29h.14l-.07-.13-3.51-2.26h-.15l.07.13Z"/><path d="M233.3,38.14h4.18l.35.17-.35.16H233.3l-.35-.17Z"/><polygon points="237.54 38.8 233.17 38.74 232.25 38.3 233.23 37.84 237.61 37.91 238.52 38.35 237.54 38.8"/><path d="M236.6,32.27l-.75,5.66-.28.32-.2-.36.75-5.68.33-.48Z"/><path d="M235.53,38.6l-.36-.66.77-5.81.59-1.19.28,1.32L236,38Zm0-.74v0l.06-.07.74-5.57v-.14l-.07.14Z"/><path d="M232.32,34.71l.9-3.06.75.19-.51,1.75,2.94-.78.2.76Z"/><path d="M233.22,31.68l.67-.91.09,1.07Z"/><polygon points="194.39 12.65 193.85 12.46 194.78 9.85 191.79 11.04 193.34 8.53 193.83 8.84 193.19 9.87 195.75 8.85 194.39 12.65"/><path d="M193.34,8.53l.78-.72-.29,1Z"/><path d="M193.8,13l-.29-1.16.44-.1.17.59.66-.16.18.48Z"/><path d="M194.78,12.2h.85l-.66.52Z"/><path d="M194,11.77l-.38-.51-.07.61Z"/><polygon points="0.82 45.95 -2.99 35.98 3.2 35.98 -1.24 27.1 -0.05 26.51 5.34 37.3 -1.06 37.3 2.06 45.48 0.82 45.95"/><path d="M.8,45.91l1.48,2-.22-2.43Z"/><polygon points="6.18 46.05 4.98 45.5 10.86 32.66 7.95 32.66 7.95 31.34 12.93 31.34 6.18 46.05"/><path d="M6.18,46,4.6,47.91,5,45.5Z"/><path d="M8,31.33,5.6,32l2.35.66Z"/><rect x="0.53" y="28.39" width="4.28" height="1.33" transform="translate(-16.9 7.41) rotate(-36.87)"/><path d="M4,27.24l2.28-.88-1.52,2Z"/><rect x="-0.98" y="25.6" width="5.68" height="1.33" transform="translate(-15.87 6.8) rotate(-38.29)"/><path d="M3.63,24l2.3-1L4.47,25Z"/><polygon points="285.07 21.84 284 21.45 288 13.47 284.02 13.96 287.13 6.42 288.22 6.75 285.75 12.75 289.87 12.24 285.07 21.84"/><path d="M287.13,6.42l1.23-1.49-.14,1.82Z"/><path d="M284,21.45l-.28,1.81,1.34-1.42Z"/><polygon points="284.41 21.13 278.81 11.73 282.35 11.23 279.78 5.64 280.85 5.28 283.95 12.01 280.56 12.49 285.44 20.68 284.41 21.13"/><path d="M279.78,5.64,279.64,4l1.22,1.3Z"/><polygon points="43.98 56.51 25.95 56.51 31 50.65 31.85 51.28 28.21 55.5 41.71 55.5 38.07 51.28 38.92 50.65 43.98 56.51"/><rect x="34.15" y="46.2" width="1.09" height="9.81"/><polygon points="34.06 46.6 34.69 44.41 35.32 46.6 34.06 46.6"/><rect x="37.95" y="46.2" width="1.09" height="9.81"/><polygon points="37.86 46.6 38.49 44.41 39.13 46.6 37.86 46.6"/><rect x="30.88" y="46.2" width="1.09" height="9.56"/><polygon points="30.8 46.6 31.43 44.41 32.06 46.6 30.8 46.6"/><path d="M169.47,23.74,162,23.36v-.53l1.82-.09,4.46.24-3.63-6.84,2-3.51h-4.21v-.7h5.37l-2.44,4.23Z"/><path d="M169.9,24l-8.14-.42v-1l2.05-.11,4,.21-3.49-6.57,1.88-3.26h-4v-1.2h6.05l-2.59,4.48Zm-7.62-.89,6.76.35-3.89-7.32,2.29-4h-4.69v.2h4.39L165,16.14l3.77,7.11-4.9-.26-1.57.08Z"/><path d="M158.08,23.74l7.45-.38V22.9l-1.62-.16-4.64.24,3.63-6.84-2-3.51H165v-.7h-5.37l2.44,4.23Z"/><path d="M157.65,24l4.17-7.85-2.59-4.48h6.05v1.2h-4l1.88,3.26-3.49,6.57,4.2-.21,1.86.19.1.92Zm2.45-11.84,2.29,4-.07.12-3.82,7.2,6.69-.34L163.84,23l-5,.26,3.77-7.11-2.17-3.77h4.39v-.2Z"/><path d="M206.47,9.65v.45l-.28-.12-.58-1-2.79-5.48V2.94l.49.37Z"/><path d="M206.61,10.23l-.43-.19-.64-.95-2.81-5.53V2.78l.65.49,3.16,6.33h0Zm-.32-.32.13.06V9.68l-3.15-6.3-.35-.26v.43L205.68,9Z"/><polygon points="204.51 8.27 206.47 9.65 206.19 10.04 204.53 8.87 202.47 10.53 202.64 9.18 203.12 9.23 203.1 9.4 204.51 8.27"/><path d="M203.12,9.23,203,8.36l-.35.82Z"/><path d="M202.52,3V2.55l.28.12.63.93L206.17,9v.61l-.49-.37Z"/><path d="M206.26,9.82l-.65-.49L202.44,3l-.06-.59.43.19.64,1L206.25,9Zm-.51-.58.35.26V9.07L203.31,3.6l-.61-.9-.13-.06v.29Z"/><polygon points="204.48 4.34 202.52 2.96 202.8 2.57 204.46 3.74 206.51 2.08 206.35 3.43 205.87 3.37 205.89 3.21 204.48 4.34"/><path d="M205.87,3.37l.13.88.35-.82Z"/><path class="cls-1" d="M192.25,70.43,196,68.62,199.18,70"/></svg>