<svg id="Layer_1" data-name="Layer 1" xmlns="http://www.w3.org/2000/svg" viewBox="0 0 50 50"><defs><style>.cls-1{fill:#112d44;}.cls-2{fill:#fff;}</style></defs><title>freeflow_icon</title><rect class="cls-1" width="50" height="50" rx="12" ry="12"/><path class="cls-2" d="M17.58,26.61q-.22-1-.33-1.64t-.16-1.18a9.49,9.49,0,0,1-.05-1q0-.44,0-.95t-.09-1.18Q16.85,20,16.71,19a1.39,1.39,0,0,0-.51-1,1.72,1.72,0,0,0-.93-.29,5.62,5.62,0,0,0-1.09.07,6.66,6.66,0,0,1-1.05.09,1.27,1.27,0,0,1-.78-.22,1.21,1.21,0,0,1-.33-.95s.05-.11.16-.2a.5.5,0,0,1,.24-.13q.65-.07,1.27-.09a3.47,3.47,0,0,0,1.11-.2,1.78,1.78,0,0,0,.82-.62,2.79,2.79,0,0,0,.29-1.38,16.51,16.51,0,0,1-.25-3.07,12.36,12.36,0,0,0-.09-2.13,1.46,1.46,0,0,0-.64-1.13,3,3,0,0,0-1.85-.15h-.49l-.73,0-.73,0h-.49a1.18,1.18,0,0,1-.35.18L9.94,8H9.83l-.11,0L9.65,8H9.58a1.18,1.18,0,0,1-.18-.33c-.07-.17-.12-.29-.15-.36V7.15A4.46,4.46,0,0,1,11,6.24a22.63,22.63,0,0,1,3-.69q1.75-.29,3.82-.44T22,5a32.49,32.49,0,0,1,4.09.29A21.85,21.85,0,0,1,29.69,6a8.06,8.06,0,0,1,2.58,1.29A2.84,2.84,0,0,1,33.4,9.26,8.9,8.9,0,0,1,31.13,9Q30,8.68,28.89,8.31t-2.27-.65a9.64,9.64,0,0,0-2.38-.29l-.85,0-1.29,0q-.73,0-1.49,0a8.24,8.24,0,0,0-1.42.22A2.84,2.84,0,0,0,18.13,8a1,1,0,0,0-.4.82q0,.55-.07,1.49a17.09,17.09,0,0,0,0,1.95,9,9,0,0,0,.25,1.87,2.08,2.08,0,0,0,.8,1.27h1.38a32,32,0,0,1,4.42-.11,7.61,7.61,0,0,1,2.42.44q.73.33.53.75t-1.24.78a14.77,14.77,0,0,1-2.89.6,29.16,29.16,0,0,1-4.44.16q.07,1.64.15,2.56t.16,1.46q.09.53.16.84t.18.73a7.86,7.86,0,0,1,.18,1.13q.07.71.15,2.09-.51-.07-.95-.09l-.75,0a2.31,2.31,0,0,1-.47,0C17.56,26.69,17.53,26.66,17.58,26.61Z"/><path class="cls-2" d="M27.42,44.81q-.23-1-.34-1.71t-.17-1.23a9.54,9.54,0,0,1-.06-1q0-.45,0-1t-.1-1.23q-.08-.7-.23-1.72a1.46,1.46,0,0,0-.53-1,1.79,1.79,0,0,0-1-.3,5.91,5.91,0,0,0-1.14.08,6.89,6.89,0,0,1-1.1.09,1.32,1.32,0,0,1-.81-.23,1.26,1.26,0,0,1-.34-1s.06-.12.17-.21A.51.51,0,0,1,22,34.2q.68-.08,1.33-.09a3.61,3.61,0,0,0,1.16-.21,1.86,1.86,0,0,0,.85-.64,2.92,2.92,0,0,0,.3-1.44,17.17,17.17,0,0,1-.27-3.2,12.85,12.85,0,0,0-.09-2.22,1.52,1.52,0,0,0-.66-1.18,3.14,3.14,0,0,0-1.93-.15h-.51l-.76,0-.76,0h-.51a1.22,1.22,0,0,1-.36.19l-.36.15h-.11l-.11,0-.08,0h-.08a1.23,1.23,0,0,1-.19-.34c-.08-.18-.13-.3-.15-.38v-.19a4.64,4.64,0,0,1,1.86-.95,23.59,23.59,0,0,1,3.15-.72q1.82-.3,4-.46t4.34-.13a33.73,33.73,0,0,1,4.26.3,22.73,22.73,0,0,1,3.71.8,8.41,8.41,0,0,1,2.69,1.35,3,3,0,0,1,1.17,2,9.26,9.26,0,0,1-2.37-.3q-1.15-.3-2.33-.68t-2.37-.68a10.06,10.06,0,0,0-2.48-.3l-.89,0-1.35,0q-.76,0-1.55,0a8.67,8.67,0,0,0-1.48.23,3,3,0,0,0-1.1.49,1,1,0,0,0-.42.85q0,.57-.08,1.55a17.84,17.84,0,0,0,0,2,9.41,9.41,0,0,0,.27,2,2.16,2.16,0,0,0,.83,1.33H30a33.3,33.3,0,0,1,4.61-.11,7.92,7.92,0,0,1,2.52.45q.76.34.55.78t-1.29.82a15.44,15.44,0,0,1-3,.63,30.29,30.29,0,0,1-4.62.17q.08,1.71.15,2.67t.17,1.52q.09.55.17.87c.05.21.11.47.19.76a8.15,8.15,0,0,1,.19,1.18q.08.74.15,2.18c-.36,0-.68-.08-1-.09L28,45a2.4,2.4,0,0,1-.49,0C27.4,44.9,27.37,44.86,27.42,44.81Z"/></svg>