<svg id="Layer_1" data-name="Layer 1" xmlns="http://www.w3.org/2000/svg" viewBox="0 0 85 30"><defs><style>.cls-1{fill:#767474;}</style></defs><title>logo-amazon</title><path id="path8" class="cls-1" d="M52.4,22.87c-4.81,3.55-11.79,5.44-17.8,5.44A32.21,32.21,0,0,1,12.85,20c-.45-.41,0-1,.49-.65A43.77,43.77,0,0,0,35.1,25.14a43.26,43.26,0,0,0,16.6-3.39c.82-.35,1.5.53.7,1.13"/><path id="path10" class="cls-1" d="M54.4,20.58c-.61-.79-4.07-.37-5.62-.19-.47.06-.54-.35-.12-.65,2.75-1.94,7.27-1.38,7.79-.73s-.14,5.18-2.72,7.34c-.4.33-.78.16-.6-.28.58-1.45,1.88-4.7,1.27-5.49"/><path id="path12" class="cls-1" d="M48.89,6.07V4.19a.46.46,0,0,1,.48-.48h8.43a.47.47,0,0,1,.49.48V5.8A2.65,2.65,0,0,1,57.64,7l-4.37,6.24a9.31,9.31,0,0,1,4.81,1,.86.86,0,0,1,.45.73v2c0,.27-.3.6-.62.43a9.71,9.71,0,0,0-8.9,0c-.29.16-.6-.16-.6-.43V15.1a2.28,2.28,0,0,1,.31-1.29l5.06-7.26h-4.4a.47.47,0,0,1-.49-.47"/><path id="path14" class="cls-1" d="M18.14,17.82H15.58a.48.48,0,0,1-.46-.44V4.22a.48.48,0,0,1,.49-.47H18a.48.48,0,0,1,.47.44V5.91h0a3.38,3.38,0,0,1,3.38-2.44c1.6,0,2.61.78,3.33,2.44a3.79,3.79,0,0,1,6.51-1c.81,1.11.65,2.72.65,4.13v8.31a.48.48,0,0,1-.49.48H29.32a.49.49,0,0,1-.46-.48v-7a16.47,16.47,0,0,0-.07-2.47,1.34,1.34,0,0,0-1.51-1.13,1.7,1.7,0,0,0-1.53,1.08,8,8,0,0,0-.24,2.52v7a.48.48,0,0,1-.49.48H22.45a.48.48,0,0,1-.46-.48v-7c0-1.47.24-3.63-1.58-3.63s-1.77,2.11-1.77,3.63v7a.48.48,0,0,1-.49.48"/><path id="path16" class="cls-1" d="M65.53,3.47c3.8,0,5.86,3.27,5.86,7.42s-2.28,7.2-5.86,7.2-5.77-3.27-5.77-7.34,2.06-7.28,5.77-7.28m0,2.69c-1.89,0-2,2.57-2,4.18s0,5,2,5,2.08-2.77,2.08-4.46a12.17,12.17,0,0,0-.38-3.49,1.6,1.6,0,0,0-1.68-1.27"/><path id="path18" class="cls-1" d="M76.33,17.82H73.78a.49.49,0,0,1-.46-.48V4.18a.49.49,0,0,1,.49-.43h2.38a.49.49,0,0,1,.46.37v2h0c.72-1.8,1.72-2.66,3.49-2.66a3.36,3.36,0,0,1,3,1.55c.67,1.05.67,2.82.67,4.1V17.4a.49.49,0,0,1-.49.41H80.78a.49.49,0,0,1-.45-.41V10.26c0-1.44.17-3.54-1.6-3.54a1.68,1.68,0,0,0-1.48,1.05,5.82,5.82,0,0,0-.41,2.49v7.09a.49.49,0,0,1-.5.48"/><path class="cls-1" d="M13.12,15.41a3.51,3.51,0,0,1-1-2.38V9c0-1.69.12-3.25-1.13-4.41A5.81,5.81,0,0,0,7.16,3.35c-2.44,0-5.16.91-5.73,3.92a.45.45,0,0,0,.38.54l2.49.27a.54.54,0,0,0,.44-.47A2,2,0,0,1,6.81,6.07a1.72,1.72,0,0,1,1.44.67,3.3,3.3,0,0,1,.31,1.86v.33a17.76,17.76,0,0,0-4.82.89A4.36,4.36,0,0,0,1,14a3.64,3.64,0,0,0,3.84,4,5.07,5.07,0,0,0,4.23-1.86,6.31,6.31,0,0,0,1.47,1.71.54.54,0,0,0,.61-.06h0c.51-.45,1.44-1.27,2-1.7A.48.48,0,0,0,13.12,15.41Zm-8.4-1.85c0-2.19,2-2.58,3.81-2.58v.56a5,5,0,0,1-.48,2.72,2.08,2.08,0,0,1-1.77,1.16C5.29,15.41,4.72,14.66,4.72,13.56Z"/><path class="cls-1" d="M46.73,15.41a3.51,3.51,0,0,1-1-2.38V9c0-1.69.12-3.25-1.13-4.41a5.81,5.81,0,0,0-3.86-1.28c-2.44,0-5.16.91-5.73,3.92a.45.45,0,0,0,.38.54l2.48.27a.54.54,0,0,0,.45-.47,2,2,0,0,1,2.06-1.54,1.71,1.71,0,0,1,1.44.67,3.27,3.27,0,0,1,.31,1.86v.33a17.76,17.76,0,0,0-4.82.89A4.35,4.35,0,0,0,34.61,14a3.64,3.64,0,0,0,3.84,4,5.08,5.08,0,0,0,4.23-1.86,6.25,6.25,0,0,0,1.47,1.71.54.54,0,0,0,.61-.06h0c.51-.45,1.44-1.27,2-1.7A.48.48,0,0,0,46.73,15.41Zm-4.5-3.88a5,5,0,0,1-.48,2.72A2.08,2.08,0,0,1,40,15.41c-1,0-1.56-.75-1.56-1.86,0-2.19,2-2.58,3.81-2.58Z"/></svg>