<svg width="20" height="17" viewBox="0 0 20 17" fill="none" xmlns="http://www.w3.org/2000/svg">
<path d="M3.04797 13L4.37997 5.422V4L6.76197 3.88L6.24597 6.79L8.54397 4H10.752L7.66197 7.6L6.16197 8.2L7.40997 8.704L9.82797 13H7.54797L5.72397 9.76L5.14797 13H3.04797ZM16.7467 11.674C16.5307 11.874 16.2947 12.062 16.0387 12.238C15.7867 12.41 15.5127 12.56 15.2167 12.688C14.9247 12.816 14.6127 12.918 14.2807 12.994C13.9527 13.066 13.6047 13.102 13.2367 13.102C12.6167 13.102 12.0827 12.978 11.6347 12.73C11.1867 12.478 10.8287 12.138 10.5607 11.71C10.2967 11.282 10.1227 10.782 10.0387 10.21C9.95866 9.638 9.97466 9.03 10.0867 8.386C10.1947 7.782 10.3787 7.208 10.6387 6.664C10.8987 6.12 11.2327 5.644 11.6407 5.236C12.0527 4.824 12.5387 4.498 13.0987 4.258C13.6587 4.018 14.2907 3.898 14.9947 3.898C15.5107 3.898 15.9867 3.988 16.4227 4.168C16.8627 4.344 17.2287 4.6 17.5207 4.936L16.4527 5.98C16.3367 5.892 16.2127 5.808 16.0807 5.728C15.9487 5.648 15.8127 5.578 15.6727 5.518C15.5367 5.458 15.3967 5.41 15.2527 5.374C15.1127 5.338 14.9727 5.32 14.8327 5.32C14.4527 5.32 14.1147 5.402 13.8187 5.566C13.5267 5.726 13.2727 5.946 13.0567 6.226C12.8407 6.502 12.6607 6.826 12.5167 7.198C12.3727 7.566 12.2647 7.956 12.1927 8.368C12.1487 8.612 12.1207 8.864 12.1087 9.124C12.1007 9.38 12.1087 9.632 12.1327 9.88C12.1607 10.124 12.2107 10.354 12.2827 10.57C12.3547 10.786 12.4507 10.976 12.5707 11.14C12.6947 11.304 12.8427 11.434 13.0147 11.53C13.1907 11.626 13.3987 11.674 13.6387 11.674C13.7387 11.674 13.8427 11.662 13.9507 11.638C14.0627 11.614 14.1707 11.584 14.2747 11.548C14.3787 11.508 14.4787 11.464 14.5747 11.416C14.6707 11.368 14.7547 11.318 14.8267 11.266L15.1747 9.304L13.4287 9.19L13.6447 7.96H17.4007L16.7467 11.674Z" fill="black"/>
<rect x="1" y="1" width="18" height="15" rx="2" stroke="black"/>
</svg>
