<svg id="Layer_1" data-name="Layer 1" xmlns="http://www.w3.org/2000/svg" viewBox="0 0 100 60"><defs><style>.cls-1{fill:#fff;}</style></defs><title>logotipo-velgard</title><path class="cls-1" d="M94.64,20.72V33.6a3.5,3.5,0,0,1-2-1.23,2.33,2.33,0,0,0-1.82-.83h0a3.79,3.79,0,0,1-3-1.35v1.14h0V30.2h0a7.49,7.49,0,0,0-4.33,3,3.75,3.75,0,0,1-1.46-1,2.93,2.93,0,0,0-2.13-.83h0A4.79,4.79,0,0,1,76.29,30H73.92V44.95h2.36V33.53h6.89a7.46,7.46,0,0,0,11.46,9.36v2.06H97V20.72Zm0,16.75a5.11,5.11,0,1,1-8.57-3.75h8.57v3.75Z"/><path class="cls-1" d="M10.61,18.85h.08a7.53,7.53,0,0,0,.82-.06l.32,0c.24,0,.48-.09.71-.15l.48-.15.23-.08a7.58,7.58,0,0,0,4-3.42h-.05a7.47,7.47,0,0,0,.52-1.16c0,.15,0,.3,0,.45a4.6,4.6,0,0,0,9.07,1.11v3.49h1.46v-7h3a3.14,3.14,0,0,1,1,2.3h0v8.14h0a4.58,4.58,0,0,0,.62,2.3h1.84a3.14,3.14,0,0,1-1-2.3h0V14.11h0a4.58,4.58,0,0,0-.62-2.3h0a2.65,2.65,0,0,1-1-.18H36v7.22h1.46V11.62a2.71,2.71,0,0,1,2-.76h0a1.66,1.66,0,0,0,1.2-.47,2.7,2.7,0,0,1,2-.76H37.48V4H36V9.63a2.71,2.71,0,0,1-2,.76h0a1.66,1.66,0,0,0-1.2.47,2.26,2.26,0,0,1-1,.61,1.93,1.93,0,0,1-.6-.5,1.43,1.43,0,0,0-1.12-.51h0a2.34,2.34,0,0,1-1.87-.83H26.73v3.49a4.63,4.63,0,0,0-.24-.74H24.81a3.15,3.15,0,1,1-4.68-.45H26a2.33,2.33,0,0,1-1.87-.83,1.43,1.43,0,0,0-1.12-.51h0a2.34,2.34,0,0,1-1.86-.82h0a4.61,4.61,0,0,0-3.36,3.33H15.43a5.15,5.15,0,0,1-2.27,2.68l-.36.2-.36.15a5.1,5.1,0,0,1-.6.19l-.24.06A5.14,5.14,0,0,1,6.72,8v0a5.21,5.21,0,0,1,.49-.49h9.15a3.69,3.69,0,0,1-3-1.32,2.27,2.27,0,0,0-1.77-.81h0A3.7,3.7,0,0,1,8.68,4h0A7.56,7.56,0,0,0,3.09,11.3v0h0A7.52,7.52,0,0,0,10.61,18.85Z"/><path class="cls-1" d="M42.75,9.76a4.61,4.61,0,1,0,5.69,4.48,4.6,4.6,0,0,0,4.38,2.56h0a3.15,3.15,0,1,1-3,4.24H48.35a4.61,4.61,0,1,0,4.49-5.7h0c-1.62,0-2.94-1-2.94-2.21a1.87,1.87,0,0,1,.6-1.33h6.95A3,3,0,0,1,55.24,11a1.81,1.81,0,0,0-1.31-.51h0a3,3,0,0,1-2.19-.83V10h0V9.63h0A4,4,0,0,0,48.23,13a4.68,4.68,0,0,0-.19-.57H46.37a3.15,3.15,0,1,1-4.68-.45h5.91a2.33,2.33,0,0,1-1.87-.83,1.43,1.43,0,0,0-1.12-.51h0a2.34,2.34,0,0,1-1.86-.82h0Z"/><path class="cls-1" d="M66.64,24.22A4.58,4.58,0,0,0,69.79,23v1.28h1.46v-3a4.62,4.62,0,0,0,3.27,3h0a2.46,2.46,0,0,1,1.87-.74h0A1.51,1.51,0,0,0,77.51,23a2.46,2.46,0,0,1,1.87-.74H73.74a3.14,3.14,0,1,1,4.86-3.47,2.75,2.75,0,0,1-1.92.72h0a1.64,1.64,0,0,0-1.25.54,2.68,2.68,0,0,1-2.09.87H80v0a4.6,4.6,0,0,0-8.81-2.62V9.39H69.79v7.85a2.16,2.16,0,0,1-1.25-.76A1.43,1.43,0,0,0,67.42,16h0a2.34,2.34,0,0,1-1.87-.83v.71h0v-.71h0a4.61,4.61,0,0,0,1.09,9.09ZM64.5,17.31h5.29v2.31h0a3.15,3.15,0,1,1-5.29-2.31Z"/><path class="cls-1" d="M71.12,33.6a3.5,3.5,0,0,1-2-1.23,2.32,2.32,0,0,0-1.82-.83h0a3.79,3.79,0,0,1-3-1.35v1.14h0V30.2h0a7.5,7.5,0,0,0-5.19,4.56V30H56.69v3.47a3.5,3.5,0,0,1-2-1.23,2.32,2.32,0,0,0-1.82-.83h0a3.79,3.79,0,0,1-3-1.35v1.14h0V30h0A7.46,7.46,0,0,0,45.33,41.4H39V20.7H36.64V35.34a7.46,7.46,0,0,0-11.78-3.49l4.59-10.94h-4L18,38.1v0a15.4,15.4,0,0,0-5.6-6.88A10.33,10.33,0,0,1,10.88,30a4.32,4.32,0,0,1,3.22-1.27h0a2.63,2.63,0,0,0,2-.82,4.29,4.29,0,0,1,3.3-1.34H8.45l0,0a5,5,0,0,1,4.18-2.13h0a3.07,3.07,0,0,0,2.5-1.33,5,5,0,0,1,4.21-2.17H3.19a16.41,16.41,0,0,0,7,13.69,12.38,12.38,0,0,1,5.19,10.36h4l2.75-6.55a7.49,7.49,0,0,0,5.67,6.52h0a4,4,0,0,1,3-1.2h0A2.45,2.45,0,0,0,32.63,43a4,4,0,0,1,3-1.2H26.52a5.1,5.1,0,1,1,7.87-5.63,4.47,4.47,0,0,1-3.12,1.16h0a2.66,2.66,0,0,0-2,.87,4.34,4.34,0,0,1-3.38,1.41h8.79v0h2v5.35H39a4.79,4.79,0,0,1,3.55-1.35h0a2.93,2.93,0,0,0,2.13-.83A3.5,3.5,0,0,1,45.74,42a7.44,7.44,0,0,0,10.95.79v5.64a2.57,2.57,0,0,1-1.6-.92,1.68,1.68,0,0,0-1.32-.61h0a2.73,2.73,0,0,1-2.2-1v1.66h0V45.84a4.64,4.64,0,1,0,7.47,3.67h0V40.15a7.45,7.45,0,0,0,12.07,2.75v2.06h2.36V30.09H71.12ZM56.69,37.32a5.11,5.11,0,1,1-8.57-3.75h8.57v3.75Zm0,11.13v1.06h0s0,0,0,.06a2.25,2.25,0,0,1-4.51,0,2.23,2.23,0,0,1,.32-1.12Zm14.43-11a5.11,5.11,0,1,1-8.57-3.75h8.57v3.75Z"/></svg>