<svg id="svg2" xmlns="http://www.w3.org/2000/svg" xmlns:xlink="http://www.w3.org/1999/xlink" viewBox="0 0 310 100"><defs><style>.cls-1{fill:none;}.cls-2{clip-path:url(#clip-path);}.cls-3{mask:url(#mask);}.cls-4{fill:#767474;}.cls-5{filter:url(#luminosity-noclip);}</style><clipPath id="clip-path"><rect class="cls-1" x="-78.54" y="-128.79" width="469.5" height="288.39"/></clipPath><filter id="luminosity-noclip" x="7.08" y="11.74" width="293.85" height="79.95" filterUnits="userSpaceOnUse" color-interpolation-filters="sRGB"><feFlood flood-color="#fff" result="bg"/><feBlend in="SourceGraphic" in2="bg"/></filter><mask id="mask" x="7.08" y="11.74" width="293.85" height="79.95" maskUnits="userSpaceOnUse"><g class="cls-5"><path id="path3039" d="M37.1,33.82h8.4V63.44H57.72V33.82h8.41V70.07H31.07q-2.69,0-4.62-.18a15.74,15.74,0,0,1-3.39-.67,9.88,9.88,0,0,1-2.56-1.27,9.77,9.77,0,0,1-2-1.9,11.14,11.14,0,0,1-2-4.28,30.63,30.63,0,0,1-.56-6.59V33.82h8.41V57.55a10.83,10.83,0,0,0,.19,1.79,6.56,6.56,0,0,0,.37,1.27,4.17,4.17,0,0,0,.6,1,4.28,4.28,0,0,0,2.16,1.45,13.34,13.34,0,0,0,3.72.41H37.1Z"/><path id="path3043" d="M100.5,47.95a22,22,0,0,0-.19-3.42,5.11,5.11,0,0,0-.86-2,4.18,4.18,0,0,0-2.27-1.64,17,17,0,0,0-4.58-.45h-17V33.82H93.5q2.82,0,4.84.19a18.85,18.85,0,0,1,3.46.6,8.53,8.53,0,0,1,2.5,1.11,9.77,9.77,0,0,1,1.93,1.76,10.48,10.48,0,0,1,2.16,4.17,28.24,28.24,0,0,1,.6,6.63V70.07H89.43q-2.75,0-4.61-.07a19,19,0,0,1-3.13-.34,10.87,10.87,0,0,1-2.19-.71,9.17,9.17,0,0,1-1.83-1,10.36,10.36,0,0,1-3.95-8.71,12.29,12.29,0,0,1,1.52-6.18,9,9,0,0,1,4.14-3.88q2.46-1.23,8.56-1.23ZM88.64,54.59a20,20,0,0,0-2.5.08,4.73,4.73,0,0,0-1.46.37c-1.6.65-2.39,2-2.39,4.1a3.72,3.72,0,0,0,1.46,3.35,9.23,9.23,0,0,0,4.89,1H100.5v-8.9Z"/><path id="path3047" d="M121.37,20.42h8.41v13.4h10v6.63h-10V56.82a20.27,20.27,0,0,0,.22,3.43,4.13,4.13,0,0,0,.85,2,3,3,0,0,0,1.79,1,16.94,16.94,0,0,0,3.09.22h4.09V70.1h-7.14a20.19,20.19,0,0,1-5.25-.52A7.61,7.61,0,0,1,122,64.07a22.82,22.82,0,0,1-.63-6.1V40.44h-6.63V33.82h6.63Z"/><path id="path3051" d="M149.66,20.42h8.41v13.4h10v6.63h-10V56.82a20.27,20.27,0,0,0,.22,3.43,4.13,4.13,0,0,0,.85,2,3,3,0,0,0,1.79,1,16.94,16.94,0,0,0,3.09.22h4.1V70.1H161a20.2,20.2,0,0,1-5.24-.52,7.63,7.63,0,0,1-5.44-5.51,22.82,22.82,0,0,1-.63-6.1V40.44H143V33.82h6.63Z"/><path id="path3055" d="M191.12,33.82q2.6,0,4.54.18a19.06,19.06,0,0,1,3.47.64,12.4,12.4,0,0,1,2.75,1.16,13,13,0,0,1,2.42,1.82q5.28,4.84,5.28,14.51a22.69,22.69,0,0,1-1.37,8,16.76,16.76,0,0,1-3.76,6.07,12.67,12.67,0,0,1-2.34,1.86,11.31,11.31,0,0,1-2.79,1.18,19.18,19.18,0,0,1-3.5.64c-1.29.13-2.81.18-4.55.18H183.5v12.5h-8.41V33.82ZM183.5,63.44h6.55q5.81,0,8-2.45,2.75-2.91,2.76-9.46,0-11.09-10.43-11.09H183.5Z"/><path id="path3059" d="M241.89,47.95a22,22,0,0,0-.19-3.42,5.1,5.1,0,0,0-.85-2,4.19,4.19,0,0,0-2.27-1.64,17,17,0,0,0-4.58-.45H217V33.82h17.78c1.89,0,3.5.06,4.85.19a18.82,18.82,0,0,1,3.45.6,8.49,8.49,0,0,1,2.5,1.11,9.56,9.56,0,0,1,1.92,1.75,10.43,10.43,0,0,1,2.16,4.17,28.45,28.45,0,0,1,.6,6.63v21.8H230.8c-1.84,0-3.37,0-4.62-.07a19.06,19.06,0,0,1-3.13-.34,11,11,0,0,1-2.2-.67,9.37,9.37,0,0,1-1.82-1,10.36,10.36,0,0,1-3.94-8.71,12.25,12.25,0,0,1,1.52-6.18,9,9,0,0,1,4.13-3.88Q223.2,48,229.3,48ZM230,54.59a19.94,19.94,0,0,0-2.5.08A4.78,4.78,0,0,0,226,55q-2.39,1-2.38,4.1a3.71,3.71,0,0,0,1.46,3.35q1.45,1,4.89,1H241.9v-8.9Z"/><path id="path3063" d="M284,20.42h8.41V70.07H275.91a41.12,41.12,0,0,1-4.58-.22,23.26,23.26,0,0,1-3.58-.67,11,11,0,0,1-2.86-1.23,15.79,15.79,0,0,1-2.46-1.9,15.36,15.36,0,0,1-3.68-5.84,23.14,23.14,0,0,1-1.3-8,23.22,23.22,0,0,1,1.64-8.89,15.28,15.28,0,0,1,4.68-6.37c2.69-2.08,6.5-3.12,11.47-3.12H284Zm0,20H276.5Q266,40.42,266,51.67q0,11.76,9.87,11.76h8.15Z"/></g></mask></defs><title>logo-wattpad</title><g class="cls-2"><g class="cls-3"><path id="path3035" class="cls-4" d="M292.24,11.74h-8.41a8.68,8.68,0,0,0-8.69,8.67h0v4.72H275c-6.92,0-12.57,1.66-16.8,5A22,22,0,0,0,255,33.22c-.31-.44-.64-.88-1-1.3l-.06-.07a18.71,18.71,0,0,0-3.64-3.28,17.58,17.58,0,0,0-5-2.29,27.81,27.81,0,0,0-5-.88c-1.63-.15-3.47-.22-5.63-.22H216.83a8.7,8.7,0,0,0-7.93,5.15,20.58,20.58,0,0,0-7.53-4,27.69,27.69,0,0,0-5.09-.94c-1.56-.15-3.37-.22-5.37-.22h-16a8.7,8.7,0,0,0-3.5.74,8.69,8.69,0,0,0-3.5-.74h-1.37V20.42a8.68,8.68,0,0,0-8.68-8.68H149.5a8.68,8.68,0,0,0-8.69,8.67h0v4.8a8.77,8.77,0,0,0-1.14-.09H138.3V20.42a8.68,8.68,0,0,0-8.68-8.68H121.2a8.68,8.68,0,0,0-8.7,8.66v5A8.66,8.66,0,0,0,108.1,28a17.71,17.71,0,0,0-4.19-1.78,27.71,27.71,0,0,0-5-.88c-1.63-.15-3.46-.22-5.63-.22H75.5a8.63,8.63,0,0,0-4.77,1.43A8.61,8.61,0,0,0,66,25.17H57.5a8.65,8.65,0,0,0-6.11,2.5,8.67,8.67,0,0,0-6.11-2.5H36.9a8.69,8.69,0,0,0-6.4,2.78,8.68,8.68,0,0,0-6.36-2.77H15.76a8.68,8.68,0,0,0-8.68,8.68V55.64a39,39,0,0,0,.77,8.54,19.84,19.84,0,0,0,3.53,7.59l.12.18a18.25,18.25,0,0,0,8.61,6,24.06,24.06,0,0,0,5.31,1c1.58.15,3.36.23,5.45.23H65.94a8.66,8.66,0,0,0,6.93-3.47,17.94,17.94,0,0,0,2.93,1.64,19,19,0,0,0,3.94,1.23,27.5,27.5,0,0,0,4.53.5c1.36.05,3,.09,5,.09h19.5a8.69,8.69,0,0,0,8.2-5.85,12.34,12.34,0,0,0,.85.92l.33.31a16.83,16.83,0,0,0,6.73,3.76,27.73,27.73,0,0,0,7.65.86h7.14a8.67,8.67,0,0,0,7.36-4.1,17,17,0,0,0,6.14,3.24,27.66,27.66,0,0,0,7.64.86h5.46V83a8.68,8.68,0,0,0,8.66,8.7h8.44a8.7,8.7,0,0,0,8.68-8.7V79.21c1.64,0,3.09-.1,4.42-.22a29.35,29.35,0,0,0,5.07-.93,20.32,20.32,0,0,0,4.85-2.11,21.5,21.5,0,0,0,4-3.15l.27-.29a18.94,18.94,0,0,0,2.84,2.73l.1.08a17.86,17.86,0,0,0,3.54,2.08,18.91,18.91,0,0,0,3.95,1.23,27.36,27.36,0,0,0,4.53.5c1.36.05,3,.09,5,.09h19.5a8.68,8.68,0,0,0,7.84-5,23.78,23.78,0,0,0,2.18,1.54,19.83,19.83,0,0,0,5.09,2.19,30.18,30.18,0,0,0,4.93.93,48.46,48.46,0,0,0,5.55.29h16.53a8.68,8.68,0,0,0,8.68-8.68h0V20.42a8.67,8.67,0,0,0-8.66-8.68h0"/></g></g></svg>