<svg id="Layer_1" data-name="Layer 1" xmlns="http://www.w3.org/2000/svg" viewBox="0 0 100 60"><defs><style>.cls-1{isolation:isolate;}.cls-2{fill:#fff;}</style></defs><title>title-anseio</title><g class="cls-1"><g class="cls-1"><path class="cls-2" d="M6.22,22.81a10.6,10.6,0,0,0,1.35-.18c-.24-.67-1.19-3.4-1.4-3.77-.47,0-2.6.09-3.09.17a29.64,29.64,0,0,0-.94,3.6,7.89,7.89,0,0,0,1.15.18l.05.27c-.41,0-1.63-.05-2-.05s-1.24,0-1.55.05l0-.27A10.71,10.71,0,0,0,1,22.63c.48-.81,3.14-7.73,3.33-8.22a9,9,0,0,0-1.06-.17V14C3.63,14,4.74,14,5,14c.56,0,1.9,0,2.29-.05l0,.27a7.94,7.94,0,0,0-1,.17c.16.57.9,2.59,1.4,3.94a43.43,43.43,0,0,0,1.82,4.28c.39.08.78.13,1.18.18l0,.27c-.16,0-1.51-.05-2.22-.05-.39,0-1.9,0-2.26.05ZM4.71,14.63h0C4.27,15.77,3.4,18,3.27,18.42l2.81.05C5.78,17.63,4.94,15.34,4.71,14.63Z"/><path class="cls-2" d="M11.91,14c.75,0,2,0,3.05-.09.29.44,3,3.68,3.21,3.91s2.48,2.84,2.9,3.19a48.44,48.44,0,0,0-.28-6.61c-.27-.05-1-.15-1.35-.18L19.38,14c.25,0,1.7.05,2,.05s1.41,0,1.69-.05l-.05.27c-.17,0-.66.13-1,.18a20,20,0,0,0-.25,2.73c0,.6-.15,6-.23,6.52-.4-.36-4.11-4.51-4.42-4.85s-2.73-3.18-3.17-3.67c0,.26.12,7,.29,7.47.2.06,1.2.15,1.46.18l0,.27c-.24,0-1.63-.05-2-.05s-1.43,0-1.82.05l0-.27a8.55,8.55,0,0,0,1.11-.18c.23-.54.38-7.76.38-8.18A12.12,12.12,0,0,0,12,14.3Z"/><path class="cls-2" d="M25.71,24.33c0-.18.21-1.61.21-2.11,0-.33.08-1.72,0-2l.31.08a8.9,8.9,0,0,0,.09,1.13,2.28,2.28,0,0,0,2.07,1.4,1.74,1.74,0,0,0,1.9-1.62c0-1-.84-1.56-1.71-2.1-1.31-.82-2.35-1.54-2.35-3,0-1,.78-2.26,2.76-2.26a7.87,7.87,0,0,1,1.81.23c.09-.31.16-.69.24-1l.31,0a25,25,0,0,0-.32,3.52l-.31-.13a8.18,8.18,0,0,0-.05-1,2,2,0,0,0-1.78-1.16c-1.15,0-1.63.71-1.63,1.29,0,.84.91,1.29,1.93,1.9s2.23,1.39,2.23,3c0,1.79-1.47,2.8-3.29,2.8a5,5,0,0,1-1.85-.32c-.07.24-.2.86-.29,1.34Z"/><path class="cls-2" d="M35.78,18c0-1.16,0-3.2-.09-3.6-.25-.05-1.07-.14-1.39-.18L34.24,14l1.2,0h1.18c.43,0,3.57,0,3.93-.09a4.64,4.64,0,0,0,.11-.6l.31-.05c-.07.27-.24,2.26-.27,2.66l-.29-.09c0-.09,0-.67,0-.93-.24-.37-2.3-.54-3-.54,0,.18-.09,2.66-.09,3.42v.26a13.88,13.88,0,0,0,2.77-.21,3,3,0,0,0,.13-.55l.28,0c0,.23-.28,2-.35,2.41l-.25-.1c0-.27,0-.6,0-.86a7.81,7.81,0,0,0-2.61-.28v.26c0,.78.05,3.59.09,4a8.05,8.05,0,0,0,3.21-.44c.15-.45.21-.85.29-1.13l.31-.08c-.09.37-.39,2.33-.44,3l-.28-.05c0-.35,0-.58,0-.78-.39-.06-3.36-.12-4.2-.12-.46,0-1.51,0-2,.05l.07-.27a11.06,11.06,0,0,0,1.38-.18c.05-.23.09-2.6.09-4Z"/></g><g class="cls-1"><path class="cls-2" d="M47.18,18.55c0,1.67,0,3.82.07,4.08.33.08,1.14.15,1.4.18l.07.27c-.29,0-1.69-.05-2.52-.05-.46,0-1.69,0-2.09.05l.05-.27c.23,0,1.14-.13,1.42-.18.05-.54.07-2.92.07-4.18v-.76c0-.42,0-2.83-.07-3.27-.27-.05-1.15-.15-1.4-.18L44.12,14c.25,0,1.49.05,2.54.05.68,0,1.83,0,2.06-.05l-.07.27c-.27,0-.92.13-1.4.18-.05.26-.07,1.75-.07,3.33Z"/></g><g class="cls-1"><path class="cls-2" d="M52.52,21.79a4,4,0,0,1-1.28-3.11c0-2.55,2.18-4.86,5.87-4.86a5.9,5.9,0,0,1,3.71,1,3.93,3.93,0,0,1,1.62,3.19c0,3.15-2.49,5.18-5.78,5.18A5.58,5.58,0,0,1,52.52,21.79ZM60.81,19a4.43,4.43,0,0,0-4.19-4.68,3.68,3.68,0,0,0-3.84,3.83,4.62,4.62,0,0,0,4.54,4.57A3.62,3.62,0,0,0,60.81,19Z"/></g></g><g class="cls-1"><g class="cls-1"><path class="cls-2" d="M7.29,3.57c0-.6,0-1.31,0-1.5L6.73,2l0-.14c.19,0,.61,0,1.12,0l1,0,0,.14c-.18,0-.48.05-.69.09,0,.11,0,1,0,1.52v.88c0,1.4.6,1.88,1.31,1.88a1.3,1.3,0,0,0,1-.32,2.31,2.31,0,0,0,.44-1.71V3.71c0-.21,0-1.42,0-1.64L10,2l0-.14c.17,0,.66,0,1.07,0s.7,0,.81,0l0,.14-.46.09c0,.1,0,.93,0,1.11v.32c0,.26,0,.58,0,.81a2.28,2.28,0,0,1-.65,1.83,2,2,0,0,1-1.38.46,1.83,1.83,0,0,1-2-2Z"/></g><g class="cls-1"><path class="cls-2" d="M17.49,6.39l.73-.08c0-.25-.59-3.22-.67-3.71h0c-.18.4-1.48,3.58-1.68,4-.19-.41-1.43-3.71-1.51-4h0a26.92,26.92,0,0,0-.54,3.71l.59.09,0,.14c-.09,0-.86,0-1,0l-.74,0,0-.14c.11,0,.32,0,.47-.09.15-.42.87-3.69,1-4.23L13.49,2l0-.14c.09,0,.6,0,1,0l1,0,0,.14c-.19,0-.37.07-.5.09.19.6,1,2.77,1.21,3.27.19-.38,1.34-3.12,1.35-3.27A3,3,0,0,0,17,2l0-.14.89,0,.92,0,0,.14c-.09,0-.42.06-.56.09.13.74.75,3.81.87,4.23.17,0,.43.07.55.09l0,.14-.93,0-1.23,0Z"/></g></g><g class="cls-1"><g class="cls-1"><path class="cls-2" d="M10,33.39c0,.75,0,2.79,0,3,.21,0,.84.1,1.11.12l0,.19c-.29,0-1.27,0-1.67,0s-1.27,0-1.51,0l0-.19c.13,0,.7-.08.93-.12,0-.39,0-2.27,0-3.09V33c0-.28,0-1.89,0-2.19A5.91,5.91,0,0,0,8,30.68l0-.19H10a6.14,6.14,0,0,1,2.11.26,1.18,1.18,0,0,1,.86,1.09,1.94,1.94,0,0,1-.6,1.41,3.62,3.62,0,0,1-1.84.87l0-.22a1.69,1.69,0,0,0,1.37-1.73,1.29,1.29,0,0,0-.71-1.2A2.84,2.84,0,0,0,10,30.75c0,.26,0,1.51,0,2.27Z"/><path class="cls-2" d="M15.49,33.27c0-.79,0-2.2-.06-2.47-.17,0-.7-.1-.91-.12l0-.19.79,0H16c.28,0,2.33,0,2.57-.06a3.39,3.39,0,0,0,.07-.42l.2,0c0,.19-.16,1.56-.17,1.83l-.19-.06c0-.06,0-.46,0-.64s-1.5-.37-2-.37c0,.12-.06,1.83-.06,2.35v.18a8.59,8.59,0,0,0,1.81-.14,2.18,2.18,0,0,0,.09-.38l.18,0c0,.16-.18,1.37-.23,1.65l-.17-.07c0-.19,0-.42,0-.59a4.89,4.89,0,0,0-1.71-.19v.18c0,.54,0,2.46.06,2.72a5,5,0,0,0,2.1-.3c.1-.31.14-.58.19-.78l.2-.05c-.06.26-.25,1.6-.29,2l-.18,0c0-.24,0-.4,0-.54-.25,0-2.19-.08-2.75-.08l-1.33,0,0-.19a7,7,0,0,0,.9-.12c0-.16.06-1.79.06-2.76Z"/></g><g class="cls-1"><path class="cls-2" d="M21.92,33c0-.5,0-1.87,0-2.16-.19,0-.71-.11-.94-.12l0-.19c.22,0,1,0,1.51,0s1.43,0,1.61,0l0,.19-1,.12c0,.28,0,1.55,0,2.26v.32c0,1.16,0,2.85,0,3A4,4,0,0,0,25.05,36a8.62,8.62,0,0,0,.31-1l.21,0a24.86,24.86,0,0,0-.46,2.91l-.2,0c0-.12,0-.79,0-1-.19,0-2.08-.05-2.55-.05s-1.24,0-1.49,0l0-.19a6.41,6.41,0,0,0,.93-.12c0-.39,0-2.09,0-3Z"/></g><g class="cls-1"><path class="cls-2" d="M30.52,36.56a6.68,6.68,0,0,0,.88-.12c-.16-.46-.78-2.33-.92-2.59-.31,0-1.7.06-2,.11a21.23,21.23,0,0,0-.61,2.47,5,5,0,0,0,.75.12l0,.19c-.27,0-1.07,0-1.32,0s-.81,0-1,0l0-.19a6.73,6.73,0,0,0,.75-.12c.31-.56,2.05-5.31,2.18-5.65a5.46,5.46,0,0,0-.69-.12v-.19l1.14,0c.37,0,1.24,0,1.5,0l0,.19a4.83,4.83,0,0,0-.66.12c.1.39.59,1.78.92,2.7a30.74,30.74,0,0,0,1.19,2.94c.25.05.51.09.77.12l0,.19c-.1,0-1,0-1.45,0-.25,0-1.24,0-1.48,0Zm-1-5.62h0c-.27.79-.84,2.32-.93,2.61l1.84,0C30.23,33,29.68,31.43,29.53,30.94Z"/></g><g class="cls-1"><path class="cls-2" d="M34.35,37.6c0-.12.14-1.1.14-1.45s.05-1.18,0-1.4l.2.05a6.5,6.5,0,0,0,.06.78,1.49,1.49,0,0,0,1.36,1,1.15,1.15,0,0,0,1.24-1.11c0-.72-.55-1.07-1.12-1.44-.86-.57-1.54-1.06-1.54-2.06a1.61,1.61,0,0,1,1.8-1.56,4.92,4.92,0,0,1,1.18.16c.06-.21.1-.48.16-.72l.2,0a18.08,18.08,0,0,0-.21,2.42l-.2-.09a5.9,5.9,0,0,0,0-.67,1.28,1.28,0,0,0-1.16-.79.94.94,0,0,0-1.07.88c0,.57.59.88,1.26,1.31a2.38,2.38,0,0,1,1.46,2.07,2,2,0,0,1-2.15,1.93,3.12,3.12,0,0,1-1.21-.22c0,.17-.13.59-.19.92Z"/></g></g><g class="cls-1"><g class="cls-1"><path class="cls-2" d="M50.74,39.61a10.19,10.19,0,0,0,1.33-.18c-.24-.67-1.17-3.4-1.38-3.77-.46,0-2.55.09-3,.17a30,30,0,0,0-.92,3.6,7.6,7.6,0,0,0,1.13.18l.05.27c-.41,0-1.6-.05-2-.05s-1.22,0-1.52.05l0-.27a10.21,10.21,0,0,0,1.13-.18c.47-.81,3.08-7.73,3.27-8.22a8.63,8.63,0,0,0-1-.17v-.27c.39,0,1.48.05,1.71.05.55,0,1.86,0,2.24-.05l0,.27a7.59,7.59,0,0,0-1,.17c.16.57.88,2.58,1.38,3.94a44,44,0,0,0,1.79,4.28c.38.08.76.13,1.15.18l0,.27c-.16,0-1.48-.05-2.18-.05-.38,0-1.86,0-2.22.05Zm-1.48-8.18h0c-.41,1.14-1.26,3.37-1.39,3.79l2.76.05C50.31,34.43,49.48,32.14,49.26,31.43Z"/></g><g class="cls-1"><path class="cls-2" d="M57.92,34.4c0-.46,0-2.93-.07-3.18-.22-.05-1.12-.13-1.4-.15l0-.27h2.83a12.13,12.13,0,0,1,3.7.36,1.55,1.55,0,0,1,1.13,1.47A3.39,3.39,0,0,1,62.23,35a34.83,34.83,0,0,0,3.62,5.11l-.58.09c-.92-.41-4.41-4.36-4.62-4.63-.5,0-1,.08-1.26.08V36c0,.84,0,2.82.07,3.41a13.63,13.63,0,0,0,1.38.18l.05.27c-.33,0-1.65-.05-2.26-.05s-1.92,0-2.22.05l.05-.27a12.29,12.29,0,0,0,1.39-.18c.05-.37.07-2.89.07-4.25Zm1.47.89A4.62,4.62,0,0,0,61,35,2.17,2.17,0,0,0,62.49,33c0-.82-.76-1.83-3-1.83,0,.53-.07,2.83-.07,3.74Z"/></g><g class="cls-1"><path class="cls-2" d="M70.82,34.52c0-1,0-2.86-.07-3.15a7.08,7.08,0,0,0-3.4.54,9.12,9.12,0,0,0-.26,1.21l-.3.08c.05-.62.21-2.22.2-3.24l.3.05c0,.17,0,.57.08.84.21,0,2.47.13,4.24.13s4.17-.09,4.38-.13c.05-.15.13-.55.18-.8L76.5,30c-.08.3-.38,2.93-.42,3.32l-.3-.08c0-.51,0-1,0-1.33a9.7,9.7,0,0,0-3.42-.54c0,.35-.07,2.23-.07,3.15v.58c0,1.13,0,3.31.07,4.33.25,0,1.44.15,1.69.18l.05.27c-.31,0-1.85-.05-2.57-.05s-2.17,0-2.55.05l.07-.27,1.68-.18c0-1,.07-3.22.07-4.33Z"/><path class="cls-2" d="M79.92,34.83c0-1.16,0-3.2-.09-3.6-.25-.05-1-.14-1.36-.18l-.05-.27,1.18,0h1.16c.42,0,3.5,0,3.86-.09a4.82,4.82,0,0,0,.1-.6l.3-.05c-.07.27-.24,2.26-.26,2.66l-.29-.09c0-.09,0-.67,0-.93-.24-.37-2.26-.54-3-.54,0,.18-.09,2.66-.09,3.42v.26a13.38,13.38,0,0,0,2.72-.21,3.09,3.09,0,0,0,.13-.55l.28,0c0,.23-.28,2-.34,2.41l-.25-.1c0-.27,0-.6,0-.86a7.54,7.54,0,0,0-2.56-.28v.26c0,.79.05,3.59.09,4A7.75,7.75,0,0,0,84.65,39c.14-.45.21-.85.29-1.13l.3-.08c-.09.37-.38,2.33-.43,3l-.28-.05c0-.35,0-.58,0-.78-.38-.06-3.29-.12-4.12-.12-.45,0-1.48,0-2,.05l.07-.27a10.72,10.72,0,0,0,1.35-.18c.05-.23.09-2.6.09-4Z"/><path class="cls-2" d="M88.28,41.13c0-.18.21-1.61.21-2.11,0-.33.08-1.72,0-2l.3.08a9.07,9.07,0,0,0,.09,1.13,2.24,2.24,0,0,0,2,1.4A1.71,1.71,0,0,0,92.82,38c0-1-.83-1.56-1.68-2.1-1.29-.82-2.31-1.54-2.31-3a2.39,2.39,0,0,1,2.7-2.26,7.57,7.57,0,0,1,1.77.23c.09-.31.16-.69.24-1l.3,0a25.52,25.52,0,0,0-.31,3.52l-.3-.13a8.33,8.33,0,0,0-.05-1A1.92,1.92,0,0,0,91.43,31c-1.13,0-1.6.71-1.6,1.29,0,.84.89,1.29,1.89,1.9s2.19,1.39,2.19,3c0,1.79-1.44,2.8-3.23,2.8a4.78,4.78,0,0,1-1.81-.32c-.07.25-.2.86-.29,1.34Z"/></g></g><g class="cls-1"><g class="cls-1"><path class="cls-2" d="M11.62,51.79c0,1.09,0,4.07.07,4.44.32.05,1.27.14,1.68.18l.07.27c-.44,0-1.92-.05-2.53-.05s-1.92,0-2.29.05l.05-.27c.2,0,1.06-.12,1.41-.18.05-.57.07-3.31.07-4.5v-.51c0-.41,0-2.75-.07-3.19a9.44,9.44,0,0,0-1.42-.18l0-.27h2.94a9.67,9.67,0,0,1,3.2.37c1.18.48,1.3,1.26,1.3,1.58a2.76,2.76,0,0,1-.92,2,5.6,5.6,0,0,1-2.78,1.26l0-.32A2.5,2.5,0,0,0,14.47,50a1.87,1.87,0,0,0-1.07-1.75,4.44,4.44,0,0,0-1.71-.28c-.05.37-.07,2.2-.07,3.31Z"/><path class="cls-2" d="M19.91,51.2c0-.46,0-2.93-.07-3.18-.23-.05-1.13-.13-1.42-.15l0-.27h2.86a12.39,12.39,0,0,1,3.74.36,1.55,1.55,0,0,1,1.14,1.47,3.4,3.4,0,0,1-1.87,2.43A34.72,34.72,0,0,0,27.92,57l-.58.09c-.93-.41-4.46-4.36-4.67-4.63-.5,0-1,.08-1.27.08v.33c0,.84,0,2.82.07,3.41a13.9,13.9,0,0,0,1.39.18l.05.27c-.33,0-1.67-.05-2.28-.05s-1.94,0-2.24.05l.05-.27a12.52,12.52,0,0,0,1.41-.18c.05-.37.07-2.89.07-4.25Zm1.49.89A4.72,4.72,0,0,0,23,51.84a2.18,2.18,0,0,0,1.51-2.07c0-.82-.77-1.83-3.06-1.83,0,.53-.07,2.83-.07,3.74Z"/></g><g class="cls-1"><path class="cls-2" d="M31,55.39a4,4,0,0,1-1.27-3.11c0-2.55,2.16-4.86,5.82-4.86a5.8,5.8,0,0,1,3.67,1,4,4,0,0,1,1.6,3.19c0,3.15-2.47,5.18-5.73,5.18A5.5,5.5,0,0,1,31,55.39Zm8.21-2.8a4.41,4.41,0,0,0-4.15-4.68,3.66,3.66,0,0,0-3.81,3.83,4.61,4.61,0,0,0,4.5,4.57A3.6,3.6,0,0,0,39.22,52.59Z"/></g><g class="cls-1"><path class="cls-2" d="M46.3,52.15c0,1.67,0,3.82.07,4.08.33.08,1.13.15,1.39.18l.07.27c-.29,0-1.67-.05-2.49-.05-.45,0-1.67,0-2.07.05l.05-.27c.23,0,1.13-.13,1.41-.18.05-.54.07-2.92.07-4.18v-.76c0-.42,0-2.83-.07-3.27-.27-.05-1.14-.15-1.39-.18l-.07-.27c.25,0,1.47.05,2.52.05.68,0,1.82,0,2-.05l-.07.27L46.37,48c-.05.26-.07,1.75-.07,3.33Z"/><path class="cls-2" d="M51.95,51.48c0-.93,0-2.93-.09-3.46-.45-.08-1-.1-1.37-.13l-.07-.27c.44,0,3-.1,3.81-.1,2.59,0,3,1.07,3,1.67a1.9,1.9,0,0,1-.34,1.21,3.82,3.82,0,0,1-1.71,1.34v0c1.31.21,2.72,1.12,2.72,2.48s-1.25,2.47-3.09,2.47l-1.11-.05c-.46,0-1-.05-1.23-.05s-1.63,0-2,.05l.05-.27a11.79,11.79,0,0,0,1.38-.18c.09-.89.09-2.8.09-3.94Zm1.43.3A2.85,2.85,0,0,0,55,51.34a2,2,0,0,0,.77-1.62A1.72,1.72,0,0,0,54,47.87a1.47,1.47,0,0,0-.53.08c0,.13,0,2,0,3.11Zm0,1.08a28.63,28.63,0,0,0,.16,3.19,2.13,2.13,0,0,0,1.06.27c1.26,0,1.79-.68,1.79-1.57a2.71,2.71,0,0,0-1.45-2.28,3.25,3.25,0,0,0-1.56-.31Z"/><path class="cls-2" d="M63.84,52.15c0,1.67,0,3.82.07,4.08.33.08,1.13.15,1.39.18l.07.27c-.29,0-1.67-.05-2.49-.05-.45,0-1.67,0-2.07.05l.05-.27c.23,0,1.13-.13,1.41-.18.05-.54.07-2.92.07-4.18v-.76c0-.42,0-2.83-.07-3.27-.26-.05-1.14-.15-1.39-.18l-.07-.27c.25,0,1.47.05,2.52.05.68,0,1.82,0,2-.05l-.07.27L63.91,48c-.05.26-.07,1.75-.07,3.33Z"/></g><g class="cls-1"><path class="cls-2" d="M69.49,51.21c0-.58,0-2.93-.09-3.19-.34-.06-1.09-.15-1.41-.18l0-.27c.2,0,1.63.05,2.19.05s2-.05,3.06-.05a9.28,9.28,0,0,1,3.74.59,3.4,3.4,0,0,1,2.17,3.11c0,2.71-2.2,5.38-7.29,5.38-.74,0-3.55,0-3.87,0l.05-.27a9.49,9.49,0,0,0,1.38-.18c.07-.22.09-2.51.09-4ZM71,52.35c0,.69,0,3.11.09,3.58a4,4,0,0,0,1.45.23c2.53,0,5-1.44,5-4.18a3.46,3.46,0,0,0-1.45-3,7,7,0,0,0-3.79-1,8.71,8.71,0,0,0-1.17.08c0,.19-.09,3.15-.09,3.72Z"/><path class="cls-2" d="M86.51,56.41a10.44,10.44,0,0,0,1.34-.18c-.24-.67-1.18-3.4-1.39-3.77-.46,0-2.57.09-3.06.17a29.7,29.7,0,0,0-.93,3.6,7.74,7.74,0,0,0,1.14.18l.05.27c-.41,0-1.62-.05-2-.05s-1.23,0-1.54.05l0-.27a10.42,10.42,0,0,0,1.14-.18c.48-.81,3.12-7.73,3.3-8.22a8.79,8.79,0,0,0-1-.17v-.27c.4,0,1.5.05,1.72.05.56,0,1.88,0,2.27-.05l0,.27a7.72,7.72,0,0,0-1,.17c.16.57.89,2.58,1.39,3.94a43.61,43.61,0,0,0,1.8,4.28c.38.08.77.13,1.17.18l0,.27c-.16,0-1.5-.05-2.2-.05-.38,0-1.88,0-2.24.05ZM85,48.23h0c-.41,1.14-1.27,3.37-1.41,3.79l2.79.05C86.08,51.23,85.24,48.94,85,48.23Z"/></g><g class="cls-1"><path class="cls-2" d="M92.46,57.93c0-.18.21-1.61.21-2.11,0-.33.08-1.72,0-2l.31.08A8.9,8.9,0,0,0,93.11,55a2.26,2.26,0,0,0,2.05,1.4A1.72,1.72,0,0,0,97,54.78c0-1-.83-1.56-1.7-2.1-1.3-.82-2.33-1.54-2.33-3,0-1,.77-2.26,2.73-2.26a7.73,7.73,0,0,1,1.79.23c.09-.31.16-.69.24-1l.31,0a25.1,25.1,0,0,0-.32,3.52L97.46,50a8.33,8.33,0,0,0-.05-1,1.94,1.94,0,0,0-1.76-1.16c-1.14,0-1.62.71-1.62,1.29,0,.84.9,1.29,1.91,1.9s2.21,1.39,2.21,3c0,1.79-1.46,2.8-3.26,2.8a4.87,4.87,0,0,1-1.83-.32c-.07.25-.2.86-.29,1.34Z"/></g></g></svg>