<svg id="Layer_1" data-name="Layer 1" xmlns="http://www.w3.org/2000/svg" viewBox="0 0 85 30"><defs><style>.cls-1{isolation:isolate;}.cls-2{fill:#fff;}</style></defs><title>title-chamado</title><g class="cls-1"><path class="cls-2" d="M12.13,10.16a8,8,0,0,0-.07-.9A3,3,0,0,0,9.44,8a3.09,3.09,0,0,0-3.24,3.14,4,4,0,0,0,4.05,3.92,5.18,5.18,0,0,0,2.58-.59l-.15.47a5.85,5.85,0,0,1-3.06.65,6.18,6.18,0,0,1-2.47-.48A3.74,3.74,0,0,1,4.9,11.77,3.84,3.84,0,0,1,6.62,8.51a5.34,5.34,0,0,1,3.25-.9,10.09,10.09,0,0,1,2.28.28c.07-.14.2-.84.23-1l.25-.05a26.94,26.94,0,0,0-.24,3.37Z"/><path class="cls-2" d="M14.89,10.88c0-.35,0-2.4-.05-2.76-.2,0-.87-.13-1.14-.15l-.05-.23c.19,0,1.22,0,1.92,0s1.6,0,1.78,0L17.27,8a9.7,9.7,0,0,0-1.06.15c0,.29-.09,1.58-.09,2.52v.53c.27,0,4.09,0,4.52,0v-.5c0-.85,0-2.25-.07-2.52A10.16,10.16,0,0,0,19.5,8l-.05-.23c.19,0,1.2,0,1.87,0s1.62,0,1.82,0L23.08,8,22,8.12c-.05.22-.08,2.46-.08,2.76v.76c0,1.26,0,3.06.1,3.43.22,0,.88.14,1.1.15l.05.23c-.21,0-1.32,0-1.83,0s-1.49,0-1.86,0l.05-.23c.16,0,.88-.11,1.08-.15.07-.37.07-1.75.07-2.91v-.63c-.51,0-4.37.22-4.52.25v.38c0,1.11,0,2.51.09,2.91a8.76,8.76,0,0,0,1.06.15l.05.23c-.23,0-1.31,0-1.78,0s-1.59,0-1.92,0l.07-.23a11.25,11.25,0,0,0,1.13-.15c0-.51.05-2.34.05-3.17Z"/></g><g class="cls-1"><g class="cls-1"><path class="cls-2" d="M27.85,15.22a8.32,8.32,0,0,0,1.1-.15c-.2-.57-1-2.88-1.14-3.19-.38,0-2.11.08-2.52.14a25.89,25.89,0,0,0-.76,3.05,6.18,6.18,0,0,0,.94.15l0,.23c-.34,0-1.33,0-1.65,0s-1,0-1.26,0l0-.23a8.3,8.3,0,0,0,.94-.15c.39-.69,2.56-6.55,2.71-7A7.17,7.17,0,0,0,25.42,8V7.74c.33,0,1.23,0,1.42,0,.46,0,1.55,0,1.86,0l0,.23a6.3,6.3,0,0,0-.83.14c.13.48.73,2.19,1.14,3.33a37.53,37.53,0,0,0,1.48,3.63c.32.07.63.11,1,.15l0,.23c-.13,0-1.23,0-1.81,0-.32,0-1.55,0-1.84,0ZM26.62,8.3h0c-.34,1-1,2.85-1.16,3.21l2.29,0C27.49,10.83,26.81,8.9,26.62,8.3Z"/></g><g class="cls-1"><path class="cls-2" d="M39.1,15.22l1.2-.13c0-.4-1-5.31-1.1-6.11h0c-.29.66-2.44,5.89-2.77,6.51C36.08,14.82,34,9.39,33.9,9h0a44.3,44.3,0,0,0-.88,6.1c.2,0,.81.13,1,.15l0,.23c-.15,0-1.42,0-1.62,0s-.85,0-1.21,0l.08-.23c.19,0,.53-.08.77-.14.24-.69,1.43-6.07,1.59-7L32.52,8l-.07-.23c.14,0,1,0,1.57,0s1.33,0,1.63,0l0,.23a8.3,8.3,0,0,0-.82.15c.32,1,1.65,4.55,2,5.38C37.1,12.88,39,8.37,39,8.12A4.79,4.79,0,0,0,38.26,8l-.05-.23c.35,0,1.09,0,1.47,0s1.26,0,1.51,0l0,.23c-.15,0-.69.1-.92.15.21,1.22,1.24,6.26,1.43,7,.27.07.71.12.9.15l.05.23c-.37,0-1,0-1.54,0s-1.7,0-2,0Z"/></g></g><g class="cls-1"><path class="cls-2" d="M47.11,15.22a8.33,8.33,0,0,0,1.1-.15c-.2-.57-1-2.88-1.14-3.19-.38,0-2.11.08-2.52.14a26,26,0,0,0-.76,3.05,6.18,6.18,0,0,0,.94.15l0,.23c-.34,0-1.33,0-1.64,0s-1,0-1.26,0l0-.23a8.3,8.3,0,0,0,.94-.15c.39-.69,2.56-6.55,2.71-7A7.15,7.15,0,0,0,44.68,8V7.74c.33,0,1.23,0,1.42,0,.46,0,1.55,0,1.86,0l0,.23a6.27,6.27,0,0,0-.83.14c.13.48.73,2.19,1.14,3.33a37.53,37.53,0,0,0,1.48,3.63c.32.07.63.11,1,.15l0,.23c-.13,0-1.23,0-1.81,0-.32,0-1.55,0-1.84,0ZM45.88,8.3h0c-.34,1-1,2.85-1.16,3.21l2.29,0C46.75,10.83,46.07,8.9,45.88,8.3Z"/><path class="cls-2" d="M52,10.82c0-.49,0-2.48-.08-2.7C51.63,8.07,51,8,50.76,8l0-.23c.16,0,1.34,0,1.8,0s1.68,0,2.52,0a7.43,7.43,0,0,1,3.07.5,2.88,2.88,0,0,1,1.79,2.64c0,2.3-1.81,4.55-6,4.55l-3.18,0,0-.23a7.56,7.56,0,0,0,1.13-.15c.05-.19.08-2.12.08-3.39Zm1.24,1c0,.59,0,2.64.08,3a3.16,3.16,0,0,0,1.19.2c2.08,0,4.08-1.22,4.08-3.54a3,3,0,0,0-1.19-2.52,5.65,5.65,0,0,0-3.12-.81,6.79,6.79,0,0,0-1,.07c0,.16-.08,2.67-.08,3.15Z"/><path class="cls-2" d="M62.1,14.36a3.44,3.44,0,0,1-1-2.64c0-2.16,1.78-4.12,4.78-4.12a4.67,4.67,0,0,1,3,.88,3.38,3.38,0,0,1,1.32,2.7c0,2.67-2,4.39-4.71,4.39A4.44,4.44,0,0,1,62.1,14.36ZM68.84,12a3.69,3.69,0,0,0-3.41-4,3.05,3.05,0,0,0-3.13,3.25A3.85,3.85,0,0,0,66,15.14,3,3,0,0,0,68.84,12Z"/></g><g class="cls-1"><path class="cls-2" d="M8.91,4.56a2,2,0,0,1-.6-1.51A2.48,2.48,0,0,1,11,.7a2.67,2.67,0,0,1,1.72.5,1.93,1.93,0,0,1,.75,1.54,2.49,2.49,0,0,1-2.69,2.51A2.53,2.53,0,0,1,8.91,4.56Zm3.85-1.36A2.11,2.11,0,0,0,10.82.94,1.74,1.74,0,0,0,9,2.79,2.2,2.2,0,0,0,11.14,5,1.72,1.72,0,0,0,12.76,3.21Z"/></g><g class="cls-1"><path class="cls-2" d="M9.17,20.5c0-.27,0-1.38,0-1.5l-.64-.08v-.13l1,0,1.4,0a4.12,4.12,0,0,1,1.7.28,1.6,1.6,0,0,1,1,1.46c0,1.28-1,2.53-3.32,2.53H8.47l0-.13a4.08,4.08,0,0,0,.63-.08c0-.1,0-1.18,0-1.88Zm.69.53c0,.33,0,1.46,0,1.68a1.76,1.76,0,0,0,.66.11,2.05,2.05,0,0,0,2.26-2,1.64,1.64,0,0,0-.66-1.4A3.13,3.13,0,0,0,10.43,19a3.77,3.77,0,0,0-.53,0c0,.09,0,1.48,0,1.75Z"/><path class="cls-2" d="M14.78,22.46A1.91,1.91,0,0,1,14.2,21a2.41,2.41,0,0,1,2.65-2.28,2.59,2.59,0,0,1,1.67.49,1.87,1.87,0,0,1,.73,1.5,2.42,2.42,0,0,1-2.61,2.44A2.46,2.46,0,0,1,14.78,22.46Zm3.74-1.32a2,2,0,0,0-1.89-2.2,1.69,1.69,0,0,0-1.73,1.8,2.13,2.13,0,0,0,2,2.14A1.67,1.67,0,0,0,18.52,21.14Z"/></g><g class="cls-1"><path class="cls-2" d="M28.78,21.38a8,8,0,0,0-.07-.9,3,3,0,0,0-2.63-1.26,3.09,3.09,0,0,0-3.24,3.14,4,4,0,0,0,4.05,3.92,5.18,5.18,0,0,0,2.58-.59l-.15.47a5.85,5.85,0,0,1-3.06.65,6.18,6.18,0,0,1-2.47-.48A3.74,3.74,0,0,1,21.55,23a3.84,3.84,0,0,1,1.72-3.26,5.34,5.34,0,0,1,3.25-.9,10.09,10.09,0,0,1,2.28.28c.07-.14.2-.84.23-1l.25-.05A26.94,26.94,0,0,0,29,21.46Z"/></g><g class="cls-1"><path class="cls-2" d="M34.35,26.44a8.32,8.32,0,0,0,1.1-.15c-.2-.57-1-2.88-1.14-3.19-.38,0-2.11.08-2.52.14A25.89,25.89,0,0,0,31,26.29a6.18,6.18,0,0,0,.94.15l0,.23c-.34,0-1.33,0-1.65,0s-1,0-1.26,0l0-.23a8.3,8.3,0,0,0,.94-.15c.39-.69,2.56-6.55,2.71-7a7.17,7.17,0,0,0-.86-.14V19c.33,0,1.23,0,1.42,0,.46,0,1.55,0,1.86,0l0,.23a6.3,6.3,0,0,0-.83.14c.13.48.73,2.19,1.14,3.33A37.53,37.53,0,0,0,37,26.29c.32.07.63.11,1,.15l0,.23c-.13,0-1.23,0-1.81,0-.32,0-1.55,0-1.84,0Zm-1.23-6.93h0c-.34,1-1,2.85-1.16,3.21l2.29,0C34,22.05,33.31,20.12,33.12,19.52Z"/></g><g class="cls-1"><path class="cls-2" d="M41.62,27.46c.57.16,1,.44,1,.88,0,.83-1.22,1.18-2,1.13l.1-.35c.74,0,1.1-.29,1.1-.65s-.25-.62-.85-.78l.76-.94a4.89,4.89,0,0,1-1.59-.42A3.74,3.74,0,0,1,37.81,23a3.84,3.84,0,0,1,1.72-3.26,5.34,5.34,0,0,1,3.25-.9,10.1,10.1,0,0,1,2.28.28c.07-.14.2-.84.23-1l.25-.05a26.85,26.85,0,0,0-.24,3.37L45,21.38a8.12,8.12,0,0,0-.07-.9,3,3,0,0,0-2.63-1.26,3.09,3.09,0,0,0-3.24,3.14,4,4,0,0,0,4.05,3.92,5.18,5.18,0,0,0,2.58-.59l-.15.47a5.85,5.85,0,0,1-3.06.65h-.36Z"/></g><g class="cls-1"><path class="cls-2" d="M50.61,26.44a8.33,8.33,0,0,0,1.1-.15c-.2-.57-1-2.88-1.14-3.19-.38,0-2.11.08-2.52.14a26,26,0,0,0-.76,3.05,6.18,6.18,0,0,0,.94.15l0,.23c-.34,0-1.33,0-1.64,0s-1,0-1.26,0l0-.23a8.31,8.31,0,0,0,.94-.15c.39-.69,2.56-6.55,2.71-7a7.15,7.15,0,0,0-.86-.14V19c.33,0,1.23,0,1.42,0,.46,0,1.55,0,1.86,0l0,.23a6.27,6.27,0,0,0-.83.14c.13.48.73,2.19,1.14,3.33a37.53,37.53,0,0,0,1.48,3.63c.32.07.63.11,1,.15l0,.23c-.13,0-1.23,0-1.81,0-.32,0-1.55,0-1.84,0Zm-1.23-6.93h0c-.34,1-1,2.85-1.16,3.21l2.29,0C50.25,22.05,49.57,20.12,49.38,19.52Z"/><path class="cls-2" d="M55.49,22c0-.49,0-2.48-.08-2.7-.28-.05-.89-.13-1.15-.15l0-.23c.16,0,1.34,0,1.8,0s1.68,0,2.52,0a7.43,7.43,0,0,1,3.07.5,2.88,2.88,0,0,1,1.79,2.64c0,2.3-1.81,4.55-6,4.55l-3.18,0,0-.23a7.56,7.56,0,0,0,1.13-.15c.05-.19.08-2.12.08-3.39Zm1.24,1c0,.59,0,2.64.08,3a3.16,3.16,0,0,0,1.19.2c2.08,0,4.08-1.22,4.08-3.54a3,3,0,0,0-1.19-2.52,5.65,5.65,0,0,0-3.12-.81,6.79,6.79,0,0,0-1,.07c0,.16-.08,2.67-.08,3.15Z"/></g><g class="cls-1"><path class="cls-2" d="M65.39,25.58a3.44,3.44,0,0,1-1-2.64c0-2.16,1.78-4.12,4.78-4.12a4.67,4.67,0,0,1,3,.88,3.38,3.38,0,0,1,1.32,2.7c0,2.67-2,4.39-4.71,4.39A4.44,4.44,0,0,1,65.39,25.58Zm6.74-2.37a3.69,3.69,0,0,0-3.41-4,3.05,3.05,0,0,0-3.13,3.25,3.85,3.85,0,0,0,3.69,3.87A3,3,0,0,0,72.14,23.21Z"/></g><g class="cls-1"><path class="cls-2" d="M75.42,22c0-.39,0-2.48-.05-2.69-.18,0-.93-.11-1.17-.13l0-.23h2.35a9.87,9.87,0,0,1,3.07.31,1.31,1.31,0,0,1,.94,1.24A2.87,2.87,0,0,1,79,22.58a29.47,29.47,0,0,0,3,4.33l-.48.08c-.76-.35-3.66-3.69-3.83-3.92-.41,0-.86.07-1,.07v.28c0,.71,0,2.39.05,2.89a11.07,11.07,0,0,0,1.14.15l0,.23c-.27,0-1.37,0-1.87,0s-1.59,0-1.84,0l0-.23a10,10,0,0,0,1.15-.15c0-.32.05-2.45.05-3.59Zm1.22.75A3.79,3.79,0,0,0,78,22.58a1.84,1.84,0,0,0,1.24-1.75c0-.7-.63-1.55-2.52-1.55,0,.45-.05,2.4-.05,3.17Z"/></g></svg>